<?xml version="1.0" encoding="UTF-8"?>
<svg width="60px" height="60px" viewBox="0 0 60 60" version="1.1" xmlns="http://www.w3.org/2000/svg" xmlns:xlink="http://www.w3.org/1999/xlink">
    <!-- Generator: sketchtool 56.3 (101010) - https://sketch.com -->
    <title>F8FAD776-F127-4302-B87C-409070511DBA</title>
    <desc>Created with sketchtool.</desc>
    <g id="App-V_1.2" stroke="none" stroke-width="1" fill="none" fill-rule="evenodd">
        <g id="app/puntos_transfer_11-Error_M" transform="translate(-158.000000, -269.000000)" fill="#EC0000" fill-rule="nonzero">
            <g id="Modal-close-sesion" transform="translate(41.000000, 250.000000)">
                <g id="alert_icon_gray" transform="translate(117.000000, 19.000000)">
                    <path d="M30,-1.70530257e-13 C46.5424806,-1.70530257e-13 60,13.4575194 60,30 C60,46.5424806 46.5424806,60 30,60 C13.4575194,60 0,46.5424806 0,30 C0,13.4575194 13.4575194,-1.70530257e-13 30,-1.70530257e-13 Z M30,57 C44.8872069,57 57,44.8872069 57,30 C57,15.1127931 44.8872069,3 30,3 C15.1127931,3 3,15.1127931 3,30 C3,44.8872069 15.1127931,57 30,57 Z M29.5,42 C30.3291016,42 31,42.6708984 31,43.5 L31,46.5 C31,47.3291016 30.3291016,48 29.5,48 C28.6708984,48 28,47.3291016 28,46.5 L28,43.5 C28,42.6708984 28.6708984,42 29.5,42 Z M29.5,12 C30.3291016,12 31,12.6708984 31,13.5 L31,37.5 C31,38.3291016 30.3291016,39 29.5,39 C28.6708984,39 28,38.3291016 28,37.5 L28,13.5 C28,12.6708984 28.6708984,12 29.5,12 Z" id="Combined-Shape-Copy-8"></path>
                </g>
            </g>
        </g>
    </g>
</svg>