<?xml version="1.0" encoding="UTF-8"?>
<svg width="541px" height="178px" viewBox="0 0 541 178" version="1.1" xmlns="http://www.w3.org/2000/svg" xmlns:xlink="http://www.w3.org/1999/xlink">
    <!-- Generator: Sketch 54.1 (76490) - https://sketchapp.com -->
    <title>Group 34</title>
    <desc>Created with Sketch.</desc>
    <defs>
        <polygon id="path-1" points="0 0.0809811881 540.521206 0.0809811881 540.521206 177.118724 0 177.118724"></polygon>
    </defs>
    <g id="Page-1" stroke="none" stroke-width="1" fill="none" fill-rule="evenodd">
        <g id="Group-34">
            <path d="M219.329119,40.451278 C218.881865,40.1501597 218.208613,40 217.308574,40 L216,40 L216,44 L217.374951,44 C218.296326,44 218.964836,43.827476 219.378902,43.4816294 C219.792967,43.134984 220,42.6222045 220,41.9408946 C220,41.2492013 219.776373,40.7523962 219.329119,40.451278" id="Fill-1" fill="#000000"></path>
            <path d="M237.5,92 C230.608056,92 225,97.6073787 225,104.500437 C225,111.391748 230.608056,117 237.5,117 C244.392817,117 250,111.391748 250,104.500437 C250,97.6073787 244.392817,92 237.5,92" id="Fill-3" fill="#000000"></path>
            <path d="M315.5,92 C308.608056,92 303,97.6073787 303,104.500437 C303,111.391748 308.608056,117 315.5,117 C322.392817,117 328,111.391748 328,104.500437 C328,97.6073787 322.392817,92 315.5,92" id="Fill-5" fill="#000000"></path>
            <path d="M172.713262,41.3261891 C172.620072,41.0804463 172.489247,40.6920141 172.323477,40.1635349 C172.157706,39.634175 172.043011,39.2466236 171.981183,39 C171.811828,39.7574868 171.564516,40.5845567 171.239247,41.483852 L170,45 L174,45 L172.713262,41.3261891 Z" id="Fill-7" fill="#000000"></path>
            <path d="M292.374432,39 L291,39 L291,44 L292.051966,44 C293.067576,44 293.812883,43.7920921 294.287888,43.3772044 C294.762102,42.9623167 295,42.3135326 295,41.4317802 C295,40.6140709 294.788184,40.0051977 294.362972,39.6023761 C293.937759,39.2014108 293.274649,39 292.374432,39" id="Fill-9" fill="#000000"></path>
            <path d="M276.5,92 C269.608056,92 264,97.6073787 264,104.500437 C264,111.391748 269.608056,117 276.5,117 C283.391944,117 289,111.391748 289,104.500437 C289,97.6073787 283.391944,92 276.5,92" id="Fill-11" fill="#000000"></path>
            <path d="M278.712654,41.3261891 C278.619485,41.0804463 278.489586,40.6920141 278.322956,40.1635349 C278.157223,39.634175 278.043449,39.2466236 277.980739,39 C277.811422,39.7574868 277.565062,40.5845567 277.23897,41.483852 L276,45 L280,45 L278.712654,41.3261891 Z" id="Fill-13" fill="#000000"></path>
            <path d="M307.287888,43.3772044 C307.763683,42.9623167 308,42.3135326 308,41.4317802 C308,40.6140709 307.788184,40.0051977 307.362972,39.6033043 C306.937759,39.2014108 306.27544,39 305.375222,39 L304,39 L304,44 L305.051966,44 C306.067576,44 306.812883,43.7920921 307.287888,43.3772044" id="Fill-15" fill="#000000"></path>
            <path d="M327.008414,49 C328.326248,49 329.320824,48.5803222 329.99214,47.7409665 C330.664342,46.9016108 331,45.6512843 331,43.9908576 C331,42.3539399 330.666999,41.1131911 330.001882,40.2677405 C329.336765,39.4222899 328.345732,39 327.027012,39 C325.697664,39 324.693347,39.4222899 324.015831,40.2677405 C323.337429,41.1131911 323,42.3539399 323,43.9908576 C323,45.6329996 323.336544,46.8781019 324.010517,47.7270353 C324.685376,48.5759687 325.685265,49 327.008414,49" id="Fill-17" fill="#000000"></path>
            <path d="M207,43.9482867 C207,40.6494289 205.593109,39 202.778507,39 L201,39 L201,49 L202.461034,49 C205.487285,49 207,47.315496 207,43.9482867" id="Fill-19" fill="#000000"></path>
            <path d="M260,43.9482867 C260,40.6494289 258.593109,39 255.779327,39 L254,39 L254,49 L255.461034,49 C258.487285,49 260,47.315496 260,43.9482867" id="Fill-21" fill="#000000"></path>
            <path d="M233.009299,49 C234.327134,49 235.321709,48.5803222 235.993026,47.7409665 C236.664342,46.9016108 237,45.6512843 237,43.9908576 C237,42.3539399 236.667884,41.1131911 236.002768,40.2677405 C235.337651,39.4222899 234.345732,39 233.027898,39 C231.697664,39 230.693347,39.4222899 230.015831,40.2677405 C229.338315,41.1131911 229,42.3539399 229,43.9908576 C229,45.6329996 229.337429,46.8781019 230.011403,47.7270353 C230.685376,48.5759687 231.685265,49 233.009299,49" id="Fill-23" fill="#000000"></path>
            <path d="M423,75 L413,75 L413,95 L423,95 C428.513737,95 433,90.5139302 433,84.9995694 C433,79.4869311 428.513737,75 423,75" id="Fill-25" fill="#000000"></path>
            <path d="M368.592835,92 C363.413547,92 358.955716,95.2968005 357,100 L380,100 C378.020412,95.1357766 373.825171,92 368.592835,92" id="Fill-27" fill="#000000"></path>
            <path d="M471.086756,103 C470.641222,103 470.182216,103.020231 469.711532,103.06509 C464.084881,103.599002 459.647515,107.251945 460.022086,111.040345 C460.19994,112.83647 461.195204,114.498898 462.754569,115.601026 C464.613053,116.916015 467.075162,117.322387 469.693567,116.741856 C473.28388,115.945826 476.633462,113.589401 478.653631,110.439584 C479.804292,108.645218 480.076462,107.216761 479.983044,106.63887 C479.47643,105.629099 476.092714,103 471.086756,103" id="Fill-29" fill="#000000"></path>
            <g id="Group-33">
                <mask id="mask-2" fill="white">
                    <use xlink:href="#path-1"></use>
                </mask>
                <g id="Clip-32"></g>
                <path d="M499.686279,138.964159 L493.896522,136.472159 L502.052053,117.523971 L487.405403,86.3995257 L494.359104,86.3713277 L505.379115,109.791546 L515.441363,86.4118624 L522.27347,86.480595 L499.686279,138.964159 Z M486.601833,122.352001 L480.299271,122.352001 L480.299271,118.48006 C477.681501,120.876011 474.479556,122.626932 471.105796,123.390922 C469.872245,123.67114 468.648387,123.809486 467.453605,123.809486 C464.431407,123.809486 461.589835,122.924773 459.21525,121.209981 C456.220366,119.045783 454.302195,115.740447 453.953276,112.139031 C453.243104,104.817239 460.049659,98.1466446 469.123304,97.2663376 C473.409892,96.8495356 477.250639,97.8620208 480.191776,99.4631396 C479.523897,94.3980703 475.474327,90.611605 470.409721,90.611605 C466.482625,90.611605 462.853343,92.9035752 461.16426,96.4547634 L455.472306,93.7459911 C458.201095,88.0121 464.063985,84.3075851 470.409721,84.3075851 C479.288641,84.3075851 486.267012,91.2962881 486.573638,100.32406 L486.601833,100.32406 L486.601833,122.352001 Z M443.606431,122.352001 L449.908993,122.352001 L449.908993,69.8190901 L443.606431,69.8190901 L443.606431,122.352001 Z M422.583206,101.770971 L412.352667,101.770971 L412.352667,121.695516 L406.049224,121.695516 L406.049224,68.7070307 L409.200946,68.7070307 L409.200946,68.6999812 L422.583206,68.6999812 C431.700907,68.6999812 439.117188,76.1169416 439.117188,85.234595 C439.117188,94.3531297 431.700907,101.770971 422.583206,101.770971 L422.583206,101.770971 Z M368.161602,117.368001 C372.38475,117.368001 376.309203,115.266367 378.658236,111.746902 L383.901706,115.246981 C380.37992,120.521773 374.495003,123.672021 368.161602,123.672021 C357.732814,123.672021 349.247749,115.186179 349.247749,104.757318 C349.247749,94.3275752 357.732814,85.8417337 368.161602,85.8417337 C378.941952,85.8417337 387.07105,94.4897139 387.07105,105.96014 L383.807428,105.96014 L383.807428,106.023585 L355.615512,106.023585 C356.252553,112.384001 361.635239,117.368001 368.161602,117.368001 L368.161602,117.368001 Z M339.960876,40.411199 L339.886863,40.411199 L339.931799,41.0112881 C340.019029,42.1568327 340.062203,43.202803 340.062203,44.1509614 L340.062203,51.1696248 L338.058564,51.1696248 L338.058564,37.6689416 L340.73625,37.6689416 L347.356011,48.3709713 L347.412402,48.3709713 C347.399185,48.2299812 347.375395,47.713605 347.338389,46.8244861 C347.301382,45.9353673 347.281998,45.2409911 347.281998,44.7422386 L347.281998,37.6689416 L349.304139,37.6689416 L349.304139,51.1696248 L346.599139,51.1696248 L339.960876,40.411199 Z M339.205766,121.695516 L345.508328,121.695516 L345.508328,69.2930208 L339.205766,69.2930208 L339.205766,121.695516 Z M334.369367,120.520011 C334.369367,130.948872 325.884302,139.434714 315.455514,139.434714 C308.381983,139.434714 301.953423,135.535456 298.679227,129.260516 L304.268973,126.343783 C306.452358,130.531189 310.739827,133.131575 315.455514,133.131575 C322.409214,133.131575 328.065924,127.473466 328.065924,120.520011 C328.065924,119.979843 328.028918,119.442318 327.961073,118.91008 C324.622556,121.862942 320.252263,123.672021 315.455514,123.672021 C305.027607,123.672021 296.542542,115.186179 296.542542,104.757318 C296.542542,94.3275752 305.027607,85.8417337 315.455514,85.8417337 C320.302486,85.8417337 324.715073,87.6895851 328.065924,90.6997238 L328.065924,86.2356248 L334.369367,86.2356248 L334.369367,120.520011 Z M291.796016,46.1186545 L290.392411,46.1186545 L290.392411,51.1696248 L288.185237,51.1696248 L288.185237,37.6689416 L292.072683,37.6689416 C293.759123,37.6689416 295.023512,38.012605 295.863208,38.7034564 C296.703784,39.3925455 297.123192,40.4076743 297.123192,41.750605 C297.123192,43.1596248 296.661491,44.2408426 295.738091,44.9916149 C294.81469,45.7423871 293.500959,46.1186545 291.796016,46.1186545 L291.796016,46.1186545 Z M276.566073,123.672021 C266.138165,123.672021 257.6531,115.186179 257.6531,104.757318 C257.6531,94.3275752 266.138165,85.8417337 276.566073,85.8417337 C286.994861,85.8417337 295.479926,94.3275752 295.479926,104.757318 C295.479926,115.186179 286.994861,123.672021 276.566073,123.672021 L276.566073,123.672021 Z M237.564731,123.672021 C227.135942,123.672021 218.650877,115.186179 218.650877,104.757318 C218.650877,94.3275752 227.135942,85.8417337 237.564731,85.8417337 C247.993519,85.8417337 256.478584,94.3275752 256.478584,104.757318 C256.478584,115.186179 247.993519,123.672021 237.564731,123.672021 L237.564731,123.672021 Z M216.145889,45.7767535 L216.145889,51.1696248 L213.938714,51.1696248 L213.938714,37.6689416 L217.752148,37.6689416 C219.494097,37.6689416 220.784038,37.9949812 221.621091,38.6470604 C222.458143,39.3000208 222.876669,40.2851891 222.876669,41.6025653 C222.876669,43.2829911 222.00261,44.4805257 220.254493,45.1951693 L224.067926,51.1696248 L221.55677,51.1696248 L218.324867,45.7767535 L216.145889,45.7767535 Z M190.350586,123.672021 C175.108307,123.672021 162.7076,111.270179 162.7076,96.0256248 C162.7076,80.7819515 175.108307,68.3801099 190.350586,68.3801099 C197.575667,68.3801099 204.409537,71.1505653 209.596617,76.1803871 L205.206939,80.7052881 C201.204068,76.8218921 195.927996,74.6841297 190.350586,74.6841297 C178.584276,74.6841297 169.011924,84.2582386 169.011924,96.0256248 C169.011924,107.793892 178.584276,117.368001 190.350586,117.368001 C200.653376,117.368001 208.549861,110.010961 210.774657,99.1785158 L190.350586,99.1785158 L190.350586,92.874496 L211.424915,92.874496 C211.424915,92.8612782 211.426677,92.8480604 211.426677,92.8348426 L217.73012,92.8348426 C217.73012,110.415427 205.959405,123.672021 190.350586,123.672021 L190.350586,123.672021 Z M138.28242,100.814001 C135.976561,102.269724 128.394631,106.532912 118.625793,111.971605 L104.388858,97.2513574 L121.204794,80.0470406 C129.400856,84.7041198 135.350975,88.1222485 136.706118,88.9937436 C142.221851,92.5396446 145.767428,96.0855455 138.28242,100.814001 L138.28242,100.814001 Z M55.1798853,147.599803 L99.9806769,101.761278 L112.922384,115.14212 C91.9440954,126.79407 64.5240303,141.930239 55.1798853,147.599803 L55.1798853,147.599803 Z M38.6088967,144.94214 L38.6088967,46.0472782 C38.6088967,42.9164168 38.9930596,40.7971594 39.6935401,39.4242683 L95.5971671,97.2284465 L41.6099489,152.464843 C39.233602,151.64005 38.6088967,148.757684 38.6088967,144.94214 L38.6088967,144.94214 Z M49.6394814,39.7432584 C49.6394814,39.7432584 89.6690759,62.1765455 115.534867,76.8298228 L100.005348,92.7185257 L47.9512795,38.8946743 C48.4975661,39.1555059 49.0561883,39.4348426 49.6394814,39.7432584 L49.6394814,39.7432584 Z M170.910711,37.6134267 L173.310848,37.6134267 L178.361356,51.1696248 L176.016729,51.1696248 L174.668635,47.4201693 L169.507107,47.4201693 L168.186327,51.1696248 L165.859322,51.1696248 L170.910711,37.6134267 Z M181.846136,37.6689416 L184.523822,37.6689416 L191.144464,48.3709713 L191.199973,48.3709713 C191.187638,48.2299812 191.162967,47.713605 191.12596,46.8244861 C191.088954,45.9353673 191.07045,45.2409911 191.07045,44.7422386 L191.07045,37.6689416 L193.092592,37.6689416 L193.092592,51.1696248 L190.386711,51.1696248 L183.748447,40.411199 L183.674434,40.411199 L183.720252,41.0112881 C183.8066,42.1568327 183.849775,43.202803 183.849775,44.1509614 L183.849775,51.1696248 L181.846136,51.1696248 L181.846136,37.6689416 Z M198.358972,37.6689416 L202.532778,37.6689416 C204.680918,37.6689416 206.351498,38.247001 207.546279,39.4048822 C208.74018,40.5618822 209.337571,42.1903178 209.337571,44.2901891 C209.337571,46.5187139 208.719034,48.2220505 207.481959,49.4010802 C206.244003,50.5801099 204.462403,51.1696248 202.135398,51.1696248 L198.358972,51.1696248 L198.358972,37.6689416 Z M228.710481,39.2480307 C229.809222,38.0531396 231.377594,37.4565752 233.414714,37.4565752 C235.420996,37.4565752 236.972626,38.0628327 238.068724,39.2753475 C239.163941,40.4878624 239.71199,42.1973673 239.71199,44.4012188 C239.71199,46.598902 239.162179,48.3066446 238.063437,49.5253277 C236.964696,50.7448921 235.409542,51.3537931 233.396211,51.3537931 C231.359091,51.3537931 229.793363,50.749298 228.700789,49.5403079 C227.608216,48.3304366 227.061929,46.6103574 227.061929,44.3818327 C227.061929,42.1541891 227.61174,40.4420406 228.710481,39.2480307 L228.710481,39.2480307 Z M244.313133,51.1696248 L246.520307,51.1696248 L246.520307,37.6486743 L244.313133,37.6486743 L244.313133,51.1696248 Z M251.786687,37.6689416 L255.960493,37.6689416 C258.108633,37.6689416 259.780094,38.247001 260.973994,39.4048822 C262.168776,40.5618822 262.765286,42.1903178 262.765286,44.2901891 C262.765286,46.5187139 262.146749,48.2220505 260.909674,49.4010802 C259.672599,50.5801099 257.890118,51.1696248 255.563113,51.1696248 L251.786687,51.1696248 L251.786687,37.6689416 Z M277.249812,37.6134267 L279.649949,37.6134267 L284.701338,51.1696248 L282.35583,51.1696248 L281.007736,47.4201693 L275.846208,47.4201693 L274.525428,51.1696248 L272.198423,51.1696248 L277.249812,37.6134267 Z M301.520799,37.6689416 L305.408245,37.6689416 C307.094685,37.6689416 308.358193,38.012605 309.19877,38.7034564 C310.039346,39.3925455 310.458753,40.4076743 310.458753,41.750605 C310.458753,43.1596248 309.997053,44.2408426 309.073652,44.9916149 C308.150252,45.7423871 306.836521,46.1186545 305.130696,46.1186545 L303.727973,46.1186545 L303.727973,51.1696248 L301.520799,51.1696248 L301.520799,37.6689416 Z M322.455032,39.2480307 C323.553773,38.0531396 325.122144,37.4565752 327.159265,37.4565752 C329.166428,37.4565752 330.717177,38.0628327 331.813275,39.2753475 C332.909372,40.4878624 333.45654,42.1973673 333.45654,44.4012188 C333.45654,46.598902 332.90761,48.3066446 331.808869,49.5253277 C330.710128,50.7448921 329.154092,51.3537931 327.140762,51.3537931 C325.10276,51.3537931 323.538794,50.749298 322.446221,49.5403079 C321.353648,48.3304366 320.80648,46.6103574 320.80648,44.3818327 C320.80648,42.1541891 321.35541,40.4420406 322.455032,39.2480307 L322.455032,39.2480307 Z M529.947916,0.0809811881 L10.5729375,0.0809811881 C4.75850912,0.0809811881 -0.000352442997,4.83851584 -0.000352442997,10.6552386 L-0.000352442997,166.544466 C-0.000352442997,172.360308 4.75850912,177.118724 10.5729375,177.118724 L529.947916,177.118724 C535.763226,177.118724 540.521206,172.360308 540.521206,166.544466 L540.521206,10.6552386 C540.521206,4.83851584 535.763226,0.0809811881 529.947916,0.0809811881 L529.947916,0.0809811881 Z" id="Fill-31" fill="#000000" mask="url(#mask-2)"></path>
            </g>
        </g>
    </g>
</svg>