<?xml version="1.0" encoding="UTF-8"?>
<svg width="540px" height="155px" viewBox="0 0 540 155" version="1.1" xmlns="http://www.w3.org/2000/svg" xmlns:xlink="http://www.w3.org/1999/xlink">
    <!-- Generator: Sketch 54.1 (76490) - https://sketchapp.com -->
    <title>Group 28</title>
    <desc>Created with Sketch.</desc>
    <defs>
        <polygon id="path-1" points="0 0.0134201977 539.908541 0.0134201977 539.908541 155 0 155"></polygon>
    </defs>
    <g id="Page-1" stroke="none" stroke-width="1" fill="none" fill-rule="evenodd">
        <g id="Group-28">
            <path d="M475,40 L484,40 C484,37.0691378 482.486913,35 479.724561,35 C477.242715,35 475.280284,37.1095515 475,40 Z" id="Fill-1" fill="#767676"></path>
            <path d="M385.999975,41.9564814 C386.008081,37.9764907 384.038886,35 381.038543,35 C377.969194,35 376,37.9350977 376,42.0394911 C376,46.0649023 378.009503,49 380.997797,49 C383.994197,49 385.999975,45.8617411 385.999975,41.9564814 Z" id="Fill-3" fill="#767676"></path>
            <path d="M181.405275,28 C180.074035,28 178.94025,28.0802848 178,28.2726653 L178,47.8837926 C178.508549,47.963861 179.484719,48 180.856669,48 C187.320422,48 191,44.3430389 191,37.4948118 C191,31.388191 187.671356,28 181.405275,28 Z" id="Fill-5" fill="#767676"></path>
            <path d="M204,42.0394911 C204,46.0649023 206.008934,49 209,49 C211.991066,49 214,45.8617411 214,41.9564814 C214,37.9767145 212.031577,35 209.040512,35 C205.968204,35 204,37.9350977 204,42.0394911 Z" id="Fill-7" fill="#767676"></path>
            <path d="M190.807983,77 C190.291007,79.2707736 189.464394,82.6248579 188.332372,87.0581389 L184,101 L198,101 L193.593231,87.0581389 C193.12698,85.6337899 192.249641,82.279922 190.964809,77 L190.807983,77 Z" id="Fill-9" fill="#767676"></path>
            <path d="M233.862604,93.1281632 C232.100048,94.5526489 230.947154,96.4122111 230.407701,98.7154152 C230.166857,99.5767832 230.029994,100.463188 230,101.356402 L230,107.871349 C230,110.707582 230.881389,113.104346 232.643723,115.066034 C234.406057,117.019376 236.695402,118 239.512203,118 C242.81869,118 245.392204,116.734523 247.232967,114.223554 C249.07773,111.704678 250,108.384172 250,104.257864 C250,100.457259 249.135274,97.3236536 247.397603,94.8537544 C245.499295,92.2856829 242.950443,91 239.755046,91 C237.589011,91 235.620938,91.7161961 233.862604,93.1281632 Z" id="Fill-11" fill="#767676"></path>
            <path d="M295,42.0394911 C295,46.0649023 297.013888,49 299.998025,49 C302.994431,49 304.999994,45.8617411 304.999994,41.9564814 C305.003937,37.9767145 303.039121,35 300.042715,35 C296.969198,35 295,37.9350977 295,42.0394911 Z" id="Fill-13" fill="#767676"></path>
            <path d="M474.435512,91 C471.6105,91 469.308372,92.1427901 467.557337,94.4360528 C466.118589,96.2589684 465.263519,98.4495828 465,100.992104 L482.995615,101 C483.056192,98.4971724 482.488697,96.3419834 481.317622,94.5190678 C479.822015,92.1703195 477.519887,91 474.435512,91 Z" id="Fill-15" fill="#767676"></path>
            <path d="M325,42 C320.338591,42 318,43.1692032 318,45.9435989 C318,47.996419 319.205272,49 320.879213,49 C323.013613,49 325,47.3122202 325,45.0188004 L325,42 Z" id="Fill-17" fill="#767676"></path>
            <path d="M277.861609,93.1281632 C276.099628,94.5526489 274.950964,96.4122111 274.411618,98.7154152 C274.143944,99.7895996 274,100.664584 274,101.356402 L274,107.871349 C274,110.707582 274.884989,113.104346 276.638974,115.066034 C278.400955,117.015203 280.690065,118 283.5143,118 C286.824124,118 289.397345,116.734523 291.23352,114.223554 C293.077692,111.704678 294,108.384172 294,104.257864 C294,100.457259 293.131449,97.3236536 291.393902,94.8537544 C289.495974,92.2856829 286.956073,91 283.761315,91 C281.595713,91 279.627811,91.7161961 277.861609,93.1281632 Z" id="Fill-19" fill="#767676"></path>
            <g id="Group-23">
                <mask id="mask-2" fill="white">
                    <use xlink:href="#path-1"></use>
                </mask>
                <g id="Clip-22"></g>
                <path d="M491.532353,102.891605 L491.532353,102.891605 C491.554451,104.206259 491.448333,105.520037 491.216186,106.814112 L465.279557,106.814112 C465.376923,110.659557 466.633933,113.604557 469.042709,115.632693 C471.228309,117.441902 474.054776,118.350447 477.526048,118.350447 C481.366218,118.350447 484.869873,117.74205 488.020602,116.512996 L489.375197,122.512241 C485.69322,124.118724 481.34587,124.917806 476.329865,124.917806 C470.295562,124.917806 465.559403,123.140998 462.112417,119.59592 C458.673746,116.046464 456.950254,111.276273 456.950254,105.301111 C456.950254,99.4356306 458.552093,94.5476575 461.759711,90.6494513 C465.117207,86.4874386 469.655132,84.4065417 475.364516,84.4065417 C480.972814,84.4065417 485.218641,86.4874386 488.101777,90.6494513 C490.384962,93.9473609 491.532353,98.0360332 491.532353,102.891605 L491.532353,102.891605 Z M452.124824,39.3604329 L452.124824,50.8926081 L447.878998,50.8926081 L447.878998,22.9847267 L452.124824,22.9847267 L452.124824,34.4764004 L452.209719,34.4764004 C453.547904,32.3915629 455.486477,31.3652352 457.960019,31.3652352 C462.007174,31.3652352 464.480716,34.5129612 464.480716,39.5145572 L464.480716,50.8926081 L464.480497,50.8926081 L460.234889,50.8926081 L460.234889,39.98919 C460.234889,36.5653976 458.94134,34.8334696 456.378528,34.8334696 C454.176737,34.8334696 452.124824,36.3302705 452.124824,39.3604329 L452.124824,39.3604329 Z M452.866777,92.8763722 C451.967506,92.7139287 451.055545,92.6340205 450.141615,92.6368665 C447.100505,92.6368665 444.748398,93.7809767 443.093827,96.0849597 C441.658495,98.1130953 440.936672,100.676725 440.936672,103.771909 L440.936672,124.195786 L432.290983,124.195786 L432.290983,97.5289993 C432.298641,93.4429541 432.215059,89.3571278 432.039581,85.2745855 L439.570043,85.2745855 L439.88621,92.7222479 L440.125578,92.7222479 C441.041915,90.1625586 442.477685,88.0978623 444.448422,86.5524597 C446.252434,85.2019018 448.44416,84.4704682 450.697369,84.4674032 C451.49621,84.4674032 452.217814,84.5243242 452.858682,84.6254682 L452.866777,92.8763722 Z M430.344532,31.7628058 L433.134459,31.7628058 L433.134459,28.2580106 L437.307207,26.9965558 L437.307207,31.7586462 L441.982758,31.7586462 L441.982758,34.9510332 L437.307207,34.9510332 L437.307207,44.2403058 C437.307207,46.6049315 438.126396,47.7853835 439.780967,47.7853835 C440.531015,47.7853835 441.159411,47.7043806 441.666591,47.5868171 L441.784087,50.8155459 C440.96074,51.1318948 439.857766,51.2901787 438.487417,51.2901787 C435.137798,51.2901787 433.134459,49.4406871 433.134459,44.5971561 L433.134459,34.9510332 L430.344532,34.9510332 L430.344532,31.7628058 Z M424.752425,104.412707 C424.752425,110.395751 423.041404,115.308244 419.626801,119.149748 C416.054224,123.104437 411.301656,125.075871 405.376972,125.075871 C399.659492,125.075871 395.113471,123.181718 391.723592,119.397135 C388.333495,115.604232 386.638447,110.825722 386.638447,105.061605 C386.638447,99.0297408 388.390165,94.0892253 391.881785,90.247721 C395.381283,86.4024951 400.093374,84.4794442 406.017839,84.4794442 C411.727442,84.4794442 416.313941,86.3779753 419.784994,90.1667182 C423.102012,93.8418383 424.752425,98.5877281 424.752425,104.412707 L424.752425,104.412707 Z M381.841242,91.7607225 L381.841024,91.7607225 L372.31138,91.7607225 L372.31138,110.659557 C372.31138,115.466309 373.990456,117.863773 377.356267,117.863773 C378.901218,117.863773 380.182515,117.73395 381.196437,117.462262 L381.435805,124.029402 C379.732442,124.666259 377.489954,124.986768 374.71228,124.986768 C371.297895,124.986768 368.629403,123.944239 366.703301,121.859402 C364.785294,119.774126 363.820165,116.281591 363.820165,111.365376 L363.820165,91.7445219 L358.142944,91.7445219 L358.142944,85.2542253 L363.820165,85.2542253 L363.820165,78.1272903 L372.311599,75.5636603 L372.311599,85.2542253 L381.841242,85.2542253 L381.841242,91.7607225 Z M350.413811,50.8926081 L350.413811,50.8926081 L350.21514,47.8219442 L350.097644,47.8219442 C348.876955,50.1423468 346.825043,51.3267394 343.957879,51.3267394 C339.347312,51.3267394 335.932928,47.2704682 335.932928,41.562834 C335.932928,35.5797903 339.473122,31.3652352 344.306866,31.3652352 C346.865521,31.3652352 348.678284,32.2291194 349.700302,33.9654258 L349.785197,33.9654258 L349.785197,22.9847267 L354.039338,22.9847267 L354.039338,45.7371066 C354.039338,47.5868171 354.083973,49.3187451 354.197312,50.8926081 L350.413811,50.8926081 Z M348.386404,120.269119 C344.874654,123.416845 339.971988,124.994868 333.686502,124.994868 C327.879532,124.994868 323.22433,123.875278 319.712579,121.632156 L321.711761,114.423999 C325.503139,116.671061 329.66779,117.790652 334.201558,117.790652 C337.461688,117.790652 339.996275,117.052431 341.804881,115.588032 C343.617425,114.119691 344.533763,112.156358 344.533763,109.706351 C344.533763,107.511831 343.7754,105.674162 342.287336,104.177361 C340.790959,102.68472 338.317417,101.293222 334.841988,100.015567 C325.393738,96.4906306 320.665237,91.3349103 320.665237,84.5525657 C320.665237,80.1230247 322.335999,76.4967253 325.669208,73.6611886 C329.002636,70.8298114 333.422847,69.4142323 338.921526,69.4142323 C343.832288,69.4142323 347.92386,70.2700162 351.172174,71.9778623 L349.002547,79.0277352 C345.945027,77.3728694 342.494103,76.545327 338.633584,76.545327 C335.58416,76.545327 333.191575,77.2958072 331.480335,78.7884484 C330.040845,80.1230247 329.310926,81.749649 329.310926,83.6805812 C329.310926,85.8100798 330.14215,87.5787874 331.796502,88.966125 C333.232271,90.2437804 335.851972,91.6350586 339.639192,93.1276999 C344.286299,95.0019301 347.700902,97.18419 349.886502,99.6911179 C352.08873,102.197827 353.18339,105.325412 353.18339,109.053293 C353.18339,113.649218 351.577831,117.384981 348.386404,120.269119 L348.386404,120.269119 Z M314.347369,45.6963863 C314.347369,40.9747973 318.43916,38.5326716 325.523268,38.5326716 L325.523268,38.1799809 C325.523268,35.6607931 324.189241,34.3995572 321.553568,34.3995572 C319.667944,34.3995572 318.013374,34.873971 316.557474,35.819077 L315.693868,33.0242606 C317.461777,31.9208708 319.667944,31.3693948 322.2592,31.3693948 C327.255075,31.3693948 329.777409,34.0059273 329.777409,39.2833708 L329.777409,46.329303 C329.777409,48.2600162 329.862523,49.7568171 330.053098,50.8967677 L326.221024,50.8926081 L325.912733,48.689988 L325.799176,48.689988 C324.501688,50.4628552 322.60775,51.3267394 320.207288,51.3267394 C316.780432,51.3267394 314.347369,48.925334 314.347369,45.6963863 L314.347369,45.6963863 Z M299.943503,51.3267394 C294.359711,51.3267394 290.734403,47.1526857 290.734403,41.4859908 C290.734403,35.5797903 294.43279,31.3693948 300.255951,31.3693948 C305.766882,31.3693948 309.465051,35.3446631 309.465051,41.1735826 C309.468989,47.1526857 305.649168,51.3267394 299.943503,51.3267394 L299.943503,51.3267394 Z M303.143025,104.254642 C303.143025,110.874543 301.346672,116.107326 297.749808,119.948611 C294.525999,123.368244 290.527636,125.075871 285.750562,125.075871 C280.596494,125.075871 276.890229,123.23842 274.639646,119.5552 L274.639646,139.979077 L265.993957,139.979077 L265.993957,98.0644936 C265.993957,93.9066405 265.884557,89.6432648 265.673633,85.2706448 L273.276955,85.2706448 L273.75963,91.440214 L273.92198,91.440214 C276.801177,86.7917465 281.176534,84.4674032 287.052207,84.4674032 C291.638706,84.4674032 295.47078,86.280553 298.544711,89.911012 C301.602012,93.5495713 303.143025,98.3280812 303.143025,104.254642 L303.143025,104.254642 Z M260.373625,39.5145572 L260.373625,50.8926081 L256.12386,50.8926081 L256.12386,37.2307154 C256.12386,35.5392888 256.083382,33.7259202 255.965886,31.7586462 L259.704532,31.7586462 L259.903203,34.7117465 L260.020918,34.7117465 C261.16437,32.6671914 263.483876,31.3693948 266.083228,31.3693948 C270.098001,31.3693948 272.733673,34.4398397 272.733673,39.4374951 L272.729735,50.8926081 L272.729516,50.8926081 L268.47997,50.8926081 L268.47997,39.9079682 C268.47997,36.5248962 267.182263,34.82931 264.623609,34.82931 C262.105213,34.82931 260.373625,36.9955883 260.373625,39.5145572 L260.373625,39.5145572 Z M258.386696,104.254642 L258.386696,104.254642 C258.386696,110.874543 256.590343,116.107326 252.99326,119.948611 C249.773609,123.368244 245.771088,125.075871 240.998171,125.075871 C235.844103,125.075871 232.137839,123.23842 229.887255,119.5552 L229.887255,139.979077 L221.241785,139.979077 L221.241785,98.0644936 C221.241785,93.9066405 221.132166,89.6432648 220.921242,85.2706448 L228.524565,85.2706448 L229.007239,91.440214 L229.16937,91.440214 C232.052725,86.7917465 236.428082,84.4674032 242.300035,84.4674032 C246.890472,84.4674032 250.722328,86.280553 253.788163,89.911012 C256.84984,93.5495713 258.386696,98.3280812 258.386696,104.254642 L258.386696,104.254642 Z M209.319557,51.3267394 C203.731607,51.3267394 200.110237,47.1526857 200.110237,41.4859908 C200.110237,35.5797903 203.808625,31.3693948 209.635942,31.3693948 C215.142717,31.3693948 218.845043,35.3446631 218.845043,41.1735826 C218.845043,47.1526857 215.02916,51.3267394 209.319557,51.3267394 L209.319557,51.3267394 Z M204.579022,124.195786 L199.534573,108.339374 L182.000108,108.339374 L177.194808,124.195786 L168.228795,124.195786 L185.605067,70.2130953 L196.335051,70.2130953 L213.788341,124.195786 L204.579022,124.195786 Z M124.997069,112.257721 C120.747304,118.614035 116.294929,124.832643 109.222636,124.942107 C102.353171,125.100172 100.041761,120.902036 92.1627496,120.902036 C84.2106588,120.902036 81.7491515,124.832643 75.1595324,125.100172 C68.4239733,125.347778 63.2780008,118.318046 58.8739814,112.014494 C50.0705373,99.151464 43.2172634,75.7666052 52.4060154,59.8532719 C56.8586086,52.0487592 64.9769878,47.0228623 73.6550592,46.8888792 C80.3987139,46.7509555 86.6557561,51.444303 90.8000592,51.444303 C94.863406,51.444303 102.600635,45.8301504 110.577012,46.6699527 C113.914378,46.767375 123.411421,47.9883284 129.538933,56.9244725 C129.044224,57.2206801 118.22497,63.5809343 118.342685,76.6547903 C118.480529,92.3207366 132.049014,97.5046984 132.211145,97.5614004 C132.130189,97.9265699 130.086372,105.041464 124.997069,112.257721 L124.997069,112.257721 Z M95.4228793,29.5074244 C99.1173282,25.1711462 105.532563,21.8489357 110.662126,21.62169 C111.335375,27.7428764 108.910408,33.7747408 105.366275,38.2084414 C101.667887,42.5729612 95.7515178,45.9113722 89.989184,45.4816194 C89.2349781,39.5914004 92.1544352,33.3285685 95.4228793,29.5074244 L95.4228793,29.5074244 Z M173.289654,24.712714 C175.71134,24.3383496 178.158625,24.1542323 180.609192,24.1610191 C190.523925,24.1610191 195.090075,29.0408919 195.090075,36.9955883 C195.090075,46.1710191 189.696639,51.1279541 179.506218,51.1279541 C177.101599,51.1279541 175.021242,51.0103905 173.289654,50.8113863 L173.289654,24.712714 Z M227.36886,31.7628058 L229.53433,40.8572338 C230.045229,43.0232931 230.475173,45.0676292 230.832036,46.9985614 L230.913212,46.9985614 C231.22544,45.3881377 231.73634,43.3762027 232.486607,40.8977352 L235.203455,31.7667465 L238.666631,31.7667465 L241.265983,40.7028905 C241.894378,42.8691688 242.405497,44.9947267 242.802839,47.002721 L242.916396,47.002721 C243.192085,45.035447 243.625967,42.9462309 244.213884,40.7028905 L246.537547,31.7667465 L250.710294,31.7628058 L244.728941,50.8926081 L240.832101,50.8926081 L238.354184,42.585221 C237.73826,40.5531448 237.225391,38.4912945 236.817547,36.4073326 L236.736372,36.4073326 C236.424143,38.4923891 235.832069,40.5813863 235.203455,42.585221 L232.567563,50.8926081 L228.630027,50.8926081 L223.001599,31.7628058 L227.36886,31.7628058 Z M280.194994,50.892827 L284.448698,50.892827 L284.448698,22.9847267 L280.194994,22.9847267 L280.194994,50.892827 Z M381.326186,31.3693948 C386.837118,31.3693948 390.535286,35.3446631 390.535286,41.1735826 C390.539443,47.1526857 386.723341,51.3267394 381.0098,51.3267394 C375.426007,51.3267394 371.804638,47.1526857 371.804638,41.4859908 C371.804638,35.5797903 375.502806,31.3693948 381.326186,31.3693948 L381.326186,31.3693948 Z M400.360967,31.7586462 L400.559638,34.7117465 L400.677134,34.7117465 C401.816647,32.6671914 404.14031,31.3652352 406.735505,31.3652352 C410.750059,31.3652352 413.389889,34.4361179 413.389889,39.4335544 L413.389889,50.8926081 L409.136186,50.8926081 L409.136186,39.9079682 C409.136186,36.5248962 407.838479,34.82931 405.279824,34.82931 C402.761429,34.82931 401.034216,36.9955883 401.034216,39.5145572 L401.034216,50.8926081 L396.780075,50.8926081 L396.780075,37.2307154 C396.780075,35.5392888 396.739816,33.7259202 396.622101,31.7586462 L400.360967,31.7586462 Z M479.7239,31.3286744 C484.610375,31.3286744 487.675991,34.9510332 487.675991,40.4231024 C487.70356,41.0689357 487.65433,41.7156448 487.530051,42.349875 L474.776599,42.349875 C474.857774,45.9722338 477.254297,48.0167888 480.802588,48.0167888 C482.688212,48.0167888 484.423738,47.700221 485.956656,47.1121843 L486.617652,50.0650657 C484.809046,50.8521066 482.680116,51.2457366 480.202417,51.2457366 C474.221064,51.2457366 470.68087,47.4650939 470.68087,41.6035544 C470.68087,35.7380742 474.306396,31.3286744 479.7239,31.3286744 L479.7239,31.3286744 Z M539.904362,15.5696843 L539.904362,15.5655247 C539.904362,6.97637924 532.943657,0.0134201977 524.357045,0.0134201977 L15.5676442,0.0134201977 C6.97709319,0.0156094633 0.011136953,6.97659816 -2.18800649e-05,15.5696843 L-2.18800649e-05,139.463943 C0.011136953,148.053964 6.9803752,155.009042 15.5676442,155.000066 L524.361202,155.000066 L524.377174,155.000066 C532.954816,155.000066 539.908519,148.044331 539.908519,139.464162 L539.908738,139.463943 L539.904362,15.5696843 Z" id="Fill-21" fill="#767676" mask="url(#mask-2)"></path>
            </g>
            <path d="M406.07974,91 C402.67341,91 400.060607,92.5561557 398.281791,95.6686875 C396.757799,98.2459669 396,101.379001 396,105.079472 C396,108.674128 396.757799,111.76219 398.281791,114.331313 C400.120654,117.443624 402.685463,119 406.008071,119 C409.258795,119 411.807677,117.411218 413.650629,114.253494 C415.214222,111.61515 416,108.514743 416,104.916119 C416,101.325872 415.242201,98.2459669 413.722513,95.6686875 C411.939609,92.5561557 409.386637,91 406.07974,91" id="Fill-24" fill="#767676"></path>
            <path d="M344.78259,35 C341.81447,35 340,37.7466486 340,41.613601 C340,45.4046043 341.883313,48 344.702409,48 C347.219746,48 349,45.7157161 349,43.0088709 L349,39.8753765 C349,37.2444805 347.330639,35 344.78259,35" id="Fill-26" fill="#767676"></path>
        </g>
    </g>
</svg>