<svg xmlns="http://www.w3.org/2000/svg" viewBox="0 0 23.2 38.71"><defs><style>.cls-1{fill:#ec0000;fill-rule:evenodd;}</style></defs><title>PROTOTIPO-ACTUALIZADO</title><g id="Capa_2" data-name="Capa 2"><g id="Capa_1-2" data-name="Capa 1"><g id="PROTOTIPO-ACTUALIZADO"><path id="articulos_viaje_icon-copy" data-name="articulos viaje icon-copy" class="cls-1" d="M19.41,5.8A3.79,3.79,0,0,1,23.2,9.59V31a3.79,3.79,0,0,1-2.06,3.37,4.71,4.71,0,0,1,.05.54,3.8,3.8,0,0,1-7.6,0,.5.5,0,0,1,0-.12H10.49s0,.08,0,.12a3.81,3.81,0,0,1-7.62,0,1.81,1.81,0,0,1,0-.23A3.78,3.78,0,0,1,0,31V9.59A3.79,3.79,0,0,1,3.79,5.8H5.72V1a1,1,0,0,1,1-1h9.74a1,1,0,0,1,1,1V5.8ZM7.66,1.93V5.8h7.81V1.93Zm-1,34.84a1.86,1.86,0,0,0,1.87-1.85,1.57,1.57,0,0,0-.13-.67A1.88,1.88,0,0,0,6.69,33,1.84,1.84,0,0,0,5,34.19a1.62,1.62,0,0,0-.17.73A1.87,1.87,0,0,0,6.69,36.77Zm10.71,0a1.86,1.86,0,0,0,1.86-1.85,1.79,1.79,0,0,0-.15-.75A1.86,1.86,0,0,0,17.4,33a1.84,1.84,0,0,0-1.71,1.15,1.61,1.61,0,0,0-.16.73A1.86,1.86,0,0,0,17.4,36.77ZM21.27,31V9.59a1.86,1.86,0,0,0-1.86-1.86H3.79A1.87,1.87,0,0,0,1.93,9.59V31a1.87,1.87,0,0,0,1.58,1.84,2.09,2.09,0,0,1,.14-.17A2.64,2.64,0,0,1,4,32.31a3.42,3.42,0,0,1,.4-.36,3.18,3.18,0,0,1,.37-.27,3.88,3.88,0,0,1,.58-.28c.12,0,.22-.1.34-.13a3.64,3.64,0,0,1,1-.16,3.59,3.59,0,0,1,1,.16,2.85,2.85,0,0,1,.31.12,3.78,3.78,0,0,1,.64.31,3.55,3.55,0,0,1,.31.23,3.89,3.89,0,0,1,.48.43,3.76,3.76,0,0,1,.25.31c.06.07.12.13.17.2H14.2c.05-.07.11-.11.15-.18s.2-.25.31-.37a3.6,3.6,0,0,1,.41-.37c.12-.09.23-.19.36-.27A4.53,4.53,0,0,1,16,31.4c.12,0,.22-.1.34-.13a3.64,3.64,0,0,1,1-.16,3.72,3.72,0,0,1,1,.15,2.31,2.31,0,0,1,.28.1,3.64,3.64,0,0,1,.63.3,1.67,1.67,0,0,1,.28.18,3.44,3.44,0,0,1,.54.47c.07.07.14.13.2.2l.07.08A1.86,1.86,0,0,0,21.27,31ZM16.43,11.6a1,1,0,1,1,0,1.93H6.77a1,1,0,1,1,0-1.93Z"/></g></g></g></svg>