<?xml version="1.0" encoding="UTF-8"?>
<svg width="40px" height="32px" viewBox="0 0 40 32" version="1.1" xmlns="http://www.w3.org/2000/svg" xmlns:xlink="http://www.w3.org/1999/xlink">
    <!-- Generator: sketchtool 57.1 (101010) - https://sketch.com -->
    <title>3D42DE72-82DE-4FA6-BD44-C42F108D5382</title>
    <desc>Created with sketchtool.</desc>
    <g id="NuevosAjustes_web" stroke="none" stroke-width="1" fill="none" fill-rule="evenodd">
        <g id="HOME/mensaje_actual_navegador" transform="translate(-690.000000, -264.000000)" fill="#EC0000">
            <g id="Group-8" transform="translate(392.000000, 216.000000)">
                <g id="header" transform="translate(64.000000, 40.000000)">
                    <g id="FUNC/FUNC001-FUNC/FUNC054" transform="translate(230.000000, 0.000000)">
                        <path d="M40.0761718,8 C42.1726074,8 43.8896198,9.65241529 43.9948858,11.7231468 L44,11.9248046 L44,36.0751954 C44,38.1716308 42.3485012,39.8895597 40.277827,39.994883 L40.076172,40 L7.9238282,40 C5.82739256,40 4.11038017,38.3475847 4.0051142,36.276853 L4,36.0751952 L4,11.9248046 C4,9.82836915 5.65149877,8.11044025 7.72217316,8.005117 L7.9238282,8 L40.0761718,8 Z M42,18 L6,18 L6,36.0751954 C6,37.0861701 6.7830215,37.9173332 7.77373535,37.9941991 L7.9238282,38 L40.0761718,38 C41.0862166,38 41.9173354,37.2169785 41.9941993,36.2254212 L42,36.0751954 L42,18 Z M29,33.0136719 C29.5527344,33.0136719 30,33.4609375 30,34.0136719 C30,34.5664063 29.5527344,35.0136719 29,35.0136719 L29,35.0136719 L19,35.0136719 C18.4472656,35.0136719 18,34.5664063 18,34.0136719 C18,33.4609375 18.4472656,33.0136719 19,33.0136719 L19,33.0136719 Z M12.5717928,21.2097587 L12.6660157,21.2929688 L14.9589844,23.5859376 L17.2519532,21.2929688 C17.642578,20.9023437 18.2753906,20.9023439 18.6660156,21.2929688 C19.0265925,21.6535455 19.0543292,22.2204834 18.7492257,22.6128082 L18.6660156,22.7070312 L16.3730469,25 L18.6660156,27.2929688 C19.0566406,27.6835938 19.0566406,28.3164062 18.6660156,28.7070312 C18.4707032,28.9023438 18.2148438,29 17.9589844,29 C17.7457683,29 17.5325521,28.9321832 17.3543747,28.7965495 L17.2519532,28.7070312 L14.9589844,26.4140624 L12.6660157,28.7070312 C12.4707033,28.9023438 12.2148439,29 11.9589844,29 C11.7031251,29 11.4472657,28.9023438 11.2519531,28.7070312 C10.8913762,28.3464545 10.8636395,27.7795165 11.1687431,27.3871917 L11.2519531,27.2929688 L13.5449219,25 L11.2519533,22.7070312 C10.8613283,22.3164064 10.8613285,21.6835938 11.2519533,21.2929688 C11.6125301,20.9323918 12.179468,20.9046551 12.5717928,21.2097587 Z M30.6128082,21.2097587 L30.7070312,21.2929688 L33,23.5859376 L35.2929688,21.2929688 C35.6835936,20.9023437 36.3164062,20.9023437 36.7070312,21.2929688 C37.0676082,21.6535457 37.0953449,22.2204835 36.7902413,22.6128082 L36.7070312,22.7070312 L34.4140624,25 L36.7070312,27.2929688 C37.0976563,27.6835936 37.0976563,28.3164062 36.7070312,28.7070312 C36.5117188,28.9023438 36.2558594,29 36,29 C35.7867839,29 35.5735677,28.9321832 35.3953903,28.7965495 L35.2929688,28.7070312 L33,26.4140624 L30.7070312,28.7070312 C30.5117188,28.9023438 30.2558594,29 30,29 C29.7441406,29 29.4882812,28.9023438 29.2929688,28.7070312 C28.9323918,28.3464545 28.9046551,27.7795165 29.2097587,27.3871917 L29.2929688,27.2929688 L31.5859376,25 L29.2929688,22.7070312 C28.9023437,22.3164064 28.9023439,21.6835938 29.2929688,21.2929688 C29.6535455,20.9323918 30.2204834,20.9046551 30.6128082,21.2097587 Z M40.076172,10 L7.9238282,10 C6.91378344,10 6.08266457,10.7830215 6.00580075,11.7745788 L6,11.9248046 L6,16 L42,16 L42,11.9248046 C42,10.8632812 41.1367188,10 40.076172,10 Z M39,12 C39.5527344,12 40,12.4472656 40,13 C40,13.5132534 39.6143475,13.9355668 39.1167042,13.9932787 L39,14 L37,14 C36.4472656,14 36,13.5527344 36,13 C36,12.4867466 36.3856525,12.0644332 36.8832958,12.0067213 L37,12 L39,12 Z M31,12 L33,12 C33.5527344,12 34,12.4472656 34,13 C34,13.5132534 33.6143475,13.9355668 33.1167042,13.9932787 L33,14 L31,14 C30.4472656,14 30,13.5527344 30,13 C30,12.4867466 30.3856525,12.0644332 30.8832958,12.0067213 L31,12 L33,12 Z" id="Combined-Shape"></path>
                    </g>
                </g>
            </g>
        </g>
    </g>
</svg>