<?xml version="1.0" encoding="UTF-8"?>
<svg width="44" height="44" viewBox="0 0 109 109" version="1.1" xmlns="http://www.w3.org/2000/svg" xmlns:xlink="http://www.w3.org/1999/xlink">
    <g id="PROTOTIPO-ACTUALIZADO" stroke="none" stroke-width="1" fill="none" fill-rule="evenodd">
        <g id="trophy_icon" fill="#6F7779" fill-rule="nonzero">
            <path d="M107.55,15.4 C106.436894,13.5847299 104.345472,12.6118839 102.24,12.93 C97.63,13.38 94.08,13.64 91.98,13.79 C92.08,11.97 92.08,10.9 92.08,10.79 C92.09,0.93 89,0 80.92,0 L27.41,0 C19.31,0 16.24,0.93 16.24,10.83 C16.24,10.9 16.24,11.95 16.34,13.76 C14.21,13.61 10.78,13.35 6.4,12.92 C4.29532375,12.605373 2.207021,13.5825411 1.1,15.4 C-2.52,21.27 3.71,36.09 6.8,41 C11.1,47.83 16.75,51.65 25.56,53.67 C29.06,61.26 33.88,68.43 40.56,73.78 L40.74,73.91 C42.19,74.91 43.24,82.02 42.98,89.02 C41.8073598,91.5496675 39.705056,93.5302025 37.11,94.55 C37,94.6 25.63,99.72 26.82,105.31 C27.6,109 32.51,109 34.13,109 L74.25,109 C75.86,109 80.77,109 81.56,105.31 C82.74,99.73 71.38,94.6 71.27,94.55 C68.67133,93.5254213 66.5684915,91.5372179 65.4,89 C65.14,82 66.18,74.86 67.64,73.89 L67.82,73.76 C74.43,68.43 79.24,61.29 82.74,53.76 C91.74,51.76 97.5,47.93 101.85,41.01 C104.94,36.09 111.17,21.27 107.55,15.4 Z M11,38.33 C6.65,31.42 3.9,20.33 5.33,18.02 C5.33,17.94 5.44,17.85 5.9,17.9 C10.9,18.39 14.65,18.66 16.71,18.8 C17.6142704,28.6975032 19.7646094,38.4412268 23.11,47.8 C18.0397074,46.2522569 13.7243604,42.8776627 11,38.33 Z M64.72,69.83 C60.03,73.15 60.22,85.83 60.39,89.61 L60.39,89.9 L60.47,90.18 C60.54,90.42 62.2,96.01 69.19,99.11 C71.7824569,100.240136 74.1347449,101.855849 76.12,103.87 C75.4873956,103.959343 74.8488122,103.999464 74.21,103.99 L34.08,103.99 C33.4411878,103.999464 32.8026044,103.959343 32.17,103.87 C34.1552551,101.855849 36.5075431,100.240136 39.1,99.11 C46.1,96 47.75,90.42 47.82,90.18 L47.9,89.9 L47.9,89.61 C48.07,85.79 48.25,73.15 43.57,69.83 C35.23,63.06 29,52.21 25.08,37.56 C22.7535759,28.8322382 21.4679729,19.8598706 21.25,10.83 C21.25,6.93 21.67,5.77 22.03,5.48 C22.63,5 25,5 27.41,5 L80.91,5 C83.37,5 85.69,5 86.3,5.49 C86.65,5.78 87.08,6.94 87.08,10.84 C86.8620271,19.8698706 85.5764241,28.8422382 83.25,37.57 C79.33,52.21 73.1,63.06 64.75,69.83 L64.72,69.83 Z M97.59,38.33 C94.7971939,42.9858473 90.345628,46.4120526 85.13,47.92 C88.5089127,38.5327318 90.6829444,28.7546295 91.6,18.82 C93.6,18.69 97.44,18.41 102.72,17.9 C103.18,17.9 103.24,17.9 103.29,18.02 C104.72,20.33 102,31.42 97.62,38.33 L97.59,38.33 Z" id="Shape"></path>
        </g>
    </g>
</svg>