<svg xmlns="http://www.w3.org/2000/svg" viewBox="0 0 36 33"><defs><style>.cls-1{fill:#ec0000;fill-rule:evenodd;}</style></defs><title>certificados</title><g id="Capa_2" data-name="Capa 2"><g id="Capa_1-2" data-name="Capa 1"><g id="PROTOTIPO-ACTUALIZADO"><path id="Certificados_icon-Copy" data-name="Certificados icon-Copy" class="cls-1" d="M35,5H28.9A6,6,0,0,0,18,2.7,6,6,0,0,0,7.1,5H1A1,1,0,0,0,0,6v8a1,1,0,0,0,1,1H2V25.05A8,8,0,0,0,10,33h16.1a8,8,0,0,0,8-7.94V15h1a1,1,0,0,0,1-1V6A1,1,0,0,0,35,5ZM23,2a4,4,0,0,1,3.86,3H19.15A4,4,0,0,1,23,2ZM16,31V7h4V31ZM13,2a4,4,0,0,1,3.86,3H9.15A4,4,0,0,1,13,2ZM2,7H14v6H2ZM4,25.05V15H14V31H10A6,6,0,0,1,4,25.05Zm28,0A6,6,0,0,1,26.05,31H22V15H32Zm2-12H22V7H34Z"/></g></g></g></svg>