<?xml version="1.0" encoding="UTF-8"?>
<svg width="40px" height="40px" viewBox="0 0 40 40" version="1.1" xmlns="http://www.w3.org/2000/svg" xmlns:xlink="http://www.w3.org/1999/xlink">
    <!-- Generator: Sketch 54.1 (76490) - https://sketchapp.com -->
    <title>NAVIGATION/chatbot Copy</title>
    <desc>Created with Sketch.</desc>
    <g id="Page-1" stroke="none" stroke-width="1" fill="none" fill-rule="evenodd">
        <g id="NAVIGATION/chatbot-Copy">
            <g id="ICONS/icn_chat">
                <circle id="Oval" fill="#FFFFFF" cx="20" cy="20" r="20"></circle>
                <g id="ICONS/icn_message" transform="translate(11.000000, 14.000000)" fill="#EC0000">
                    <path d="M15.3335369,13.3082153 L15.3335369,16.6894894 C15.3335369,17.0295231 15.1390313,17.1065844 14.8929056,16.8552899 L11.4187896,13.3082153 L1.55024892,13.3082153 C0.694070082,13.3082153 0,12.6114453 0,11.7555482 L0,1.55266706 C0,0.695152723 0.694592055,0 1.55024892,0 L16.4497511,0 C17.3059299,0 18,0.696769939 18,1.55266706 L18,11.7555482 C18,12.6130625 17.3054079,13.3082153 16.4497511,13.3082153 L15.3335369,13.3082153 Z M1.86206897,3.47427576 L1.86206897,4.13041868 C1.86206897,4.47240931 2.13768334,4.75293403 2.4776709,4.75293403 L13.6602601,4.75293403 C13.9932586,4.75293403 14.2758621,4.47422441 14.2758621,4.13041868 L14.2758621,3.47427576 C14.2758621,3.13228513 14.0002477,2.85176042 13.6602601,2.85176042 L2.4776709,2.85176042 C2.14467243,2.85176042 1.86206897,3.13047003 1.86206897,3.47427576 Z M1.86206897,6.64289844 L1.86206897,7.29904136 C1.86206897,7.641032 2.14046068,7.92155671 2.48387427,7.92155671 L8.99888435,7.92155671 C9.34455624,7.92155671 9.62068966,7.6428471 9.62068966,7.29904136 L9.62068966,6.64289844 C9.62068966,6.30090781 9.34229794,6.0203831 8.99888435,6.0203831 L2.48387427,6.0203831 C2.13820238,6.0203831 1.86206897,6.29909271 1.86206897,6.64289844 Z" id="Combined-Shape"></path>
                </g>
            </g>
        </g>
    </g>
</svg>