<?xml version="1.0" encoding="UTF-8"?>
<svg width="14px" height="14px" viewBox="0 0 14 14" version="1.1" xmlns="http://www.w3.org/2000/svg" xmlns:xlink="http://www.w3.org/1999/xlink">
    <!-- Generator: Sketch 54.1 (76490) - https://sketchapp.com -->
    <title>Group 2 Copy</title>
    <desc>Created with Sketch.</desc>
    <g id="Page-1" stroke="none" stroke-width="1" fill="none" fill-rule="evenodd">
        <g id="Group-2-Copy" fill="#990000" fill-rule="nonzero">
            <g id="Group-2">
                <g id="ICONS/icn_close" style="mix-blend-mode: multiply;">
                    <path d="M0.318181818,13.6818182 C0.513986014,13.8776224 0.758741259,13.9755245 1.0034965,13.9755245 C1.24825175,13.9755245 1.49300699,13.8776224 1.68881119,13.6818182 L7,8.3951049 L12.3111888,13.7062937 C12.506993,13.9020979 12.7517483,14 12.9965035,14 C13.2412587,14 13.486014,13.9020979 13.6818182,13.7062937 C14.0734266,13.3146853 14.0734266,12.7027972 13.6818182,12.3111888 L8.3951049,7 L13.7062937,1.68881119 C14.0979021,1.2972028 14.0979021,0.685314685 13.7062937,0.293706294 C13.3146853,-0.0979020979 12.7027972,-0.0979020979 12.3111888,0.293706294 L7,5.6048951 L1.68881119,0.318181818 C1.2972028,-0.0734265734 0.685314685,-0.0734265734 0.293706294,0.318181818 C-0.0979020979,0.70979021 -0.0979020979,1.32167832 0.293706294,1.71328671 L5.6048951,7 L0.318181818,12.3111888 C-0.0734265734,12.6783217 -0.0734265734,13.3146853 0.318181818,13.6818182 Z" id="Shape"></path>
                </g>
            </g>
        </g>
    </g>
</svg>