<svg xmlns="http://www.w3.org/2000/svg" viewBox="0 0 24.09 24.09">
  <defs>
    <style>
      .cls-1 {
        fill: none;
        stroke: #ec0000;
        stroke-linecap: round;
        stroke-miterlimit: 10;
        stroke-width: 0.7px;
      }
    </style>
  </defs>
  <title> Master_Iconos_recompensas</title>
  <g id="Layer_6" data-name="Layer 6">
    <g>
      <line class="cls-1" x1="7.79" y1="13.46" x2="7.79" y2="17.71"/>
      <line class="cls-1" x1="9.92" y1="13.46" x2="9.92" y2="17.71"/>
      <line class="cls-1" x1="12.05" y1="13.46" x2="12.05" y2="17.71"/>
      <line class="cls-1" x1="14.17" y1="13.46" x2="14.17" y2="17.71"/>
      <line class="cls-1" x1="16.3" y1="13.46" x2="16.3" y2="17.71"/>
      <path class="cls-1" d="M5.67,12v6a1.06,1.06,0,0,0,1.06,1.06h5.6"/>
      <path class="cls-1" d="M12.84,10.28a.71.71,0,0,1-1,.26.7.7,0,0,1-.26-1l2.48-4.26a.71.71,0,0,1,1-.26.7.7,0,0,1,.26,1Z"/>
      <polyline class="cls-1" points="11.82 9.21 4.61 9.21 4.61 12.04 19.48 12.04 19.48 9.21 13.46 9.21"/>
      <path class="cls-1" d="M18.43,12v6a1.06,1.06,0,0,1-1.06,1.06h-5.6"/>
    </g>
  </g>
</svg>
