<svg xmlns="http://www.w3.org/2000/svg" viewBox="0 0 36 36"><defs><style>.cls-1{fill:#ec0000;fill-rule:evenodd;}</style></defs><title>salud</title><g id="Capa_2" data-name="Capa 2"><g id="Capa_1-2" data-name="Capa 1"><g id="PROTOTIPO-ACTUALIZADO"><path id="cuidado_personal_icon-copy" data-name="cuidado personal icon-copy" class="cls-1" d="M26,23a3,3,0,0,1-3-3V15.26c-.05-1.29-1.42-1.53-2.31-1.55a16.53,16.53,0,0,1-2.62.47,13.13,13.13,0,0,1-2.78-.47c-1,0-2.21.32-2.25,1.59V20a3,3,0,0,1-3,3H8a1,1,0,0,1,0-2h2a1,1,0,0,0,1-1V15.26h0v0c.06-1.71,1.23-3.53,4.34-3.53a.85.85,0,0,1,.23,0,19.34,19.34,0,0,0,2.43.44h0a17.1,17.1,0,0,0,2.29-.44.91.91,0,0,1,.23,0c3.18,0,4.36,1.9,4.42,3.53V20a1,1,0,0,0,1,1h2a1,1,0,0,1,0,2ZM18,10.71a3.72,3.72,0,0,1-3.8-3.22L13.8,4.3a3.39,3.39,0,0,1,.78-2.75,4.55,4.55,0,0,1,6.84,0,3.44,3.44,0,0,1,.78,2.79l-.4,3.12A3.72,3.72,0,0,1,18,10.71ZM16.1,2.85A1.39,1.39,0,0,0,15.77,4l.4,3.2A1.75,1.75,0,0,0,18,8.71a1.75,1.75,0,0,0,1.83-1.53L20.23,4a1.43,1.43,0,0,0-.33-1.19,2.57,2.57,0,0,0-3.8,0ZM35,36l-.23,0a76.83,76.83,0,0,0-33.54,0A1,1,0,0,1,0,35.19,1,1,0,0,1,.76,34a68,68,0,0,1,9.29-1.5A3.84,3.84,0,0,1,8,31.87a4.31,4.31,0,0,1-2-3.64A4.2,4.2,0,0,1,10.11,24H12a1,1,0,0,1,0,2H10.11a2.2,2.2,0,0,0-2.18,2.2A2.31,2.31,0,0,0,9,30.17a1.91,1.91,0,0,0,1.89.11c.95-.48,2.66-1.23,4.4-2L14.47,28a1,1,0,0,1-.53-1.32,1,1,0,0,1,1.31-.53l2.63,1.13,2.78-1.14a1,1,0,0,1,1.29.56A1,1,0,0,1,21.4,28l-.93.37,4.45,1.91A2.13,2.13,0,0,0,27,30.06a2.16,2.16,0,0,0,1-1.83A2.2,2.2,0,0,0,25.78,26H24a1,1,0,0,1,0-2h1.81a4.21,4.21,0,0,1,0,8.42,4,4,0,0,1-1.63-.34l-6.28-2.69c-2.2.92-4.85,2-6.07,2.66a3.7,3.7,0,0,1-1.59.4,78.75,78.75,0,0,1,25,1.55A1,1,0,0,1,35,36Z"/></g></g></g></svg>