<svg xmlns="http://www.w3.org/2000/svg" viewBox="0 0 24.09 24.09">
  <defs>
    <style>
      .cls-1 {
        fill: none;
      }

      .cls-1, .cls-2 {
        stroke: #ec0000;
        stroke-linecap: round;
        stroke-miterlimit: 10;
        stroke-width: 0.7px;
      }

      .cls-2 {
        fill: #fff;
      }
    </style>
  </defs>
  <title> Master_Iconos_recompensas</title>
  <g id="Layer_6" data-name="Layer 6">
    <g>
      <rect class="cls-1" x="5.74" y="6.79" width="8.05" height="4.74" transform="translate(5.88 -3.65) rotate(29.99)"/>
      <rect class="cls-1" x="6.47" y="9.35" width="8.05" height="4.74" transform="translate(7.26 -3.68) rotate(29.99)"/>
      <path class="cls-1" d="M15.7,15.33l-4.35.95a.92.92,0,0,1-1-.61h0A1.28,1.28,0,0,1,11,14.09l3.12-1.36a3.85,3.85,0,0,1,3.09,0l1.75.76v4H17.58a3,3,0,0,0-.86.13l-4.07,1.23a2,2,0,0,1-1.36,0l-6-2.66a.37.37,0,0,1-.17-.5l.09-.24a.91.91,0,0,1,1-.49l4.07.71"/>
      <circle class="cls-1" cx="10.49" cy="11.72" r="0.86"/>
      <rect class="cls-1" x="5.74" y="6.79" width="8.05" height="4.74" transform="translate(5.88 -3.65) rotate(29.99)"/>
      <rect class="cls-2" x="6.47" y="9.35" width="8.05" height="4.74" transform="translate(7.26 -3.68) rotate(29.99)"/>
      <path class="cls-2" d="M15.7,15.33l-4.35.95a.92.92,0,0,1-1-.61h0A1.28,1.28,0,0,1,11,14.09l3.12-1.36a3.85,3.85,0,0,1,3.09,0l1.75.76v4H17.58a3,3,0,0,0-.86.13l-4.08,1.23a2,2,0,0,1-1.36,0l-6-2.66a.37.37,0,0,1-.17-.5l.09-.24a.91.91,0,0,1,1-.49l4.08.71"/>
      <circle class="cls-1" cx="10.49" cy="11.72" r="0.86"/>
    </g>
  </g>
</svg>
