<svg xmlns="http://www.w3.org/2000/svg" viewBox="0 0 38 36.83"><defs><style>.cls-1{fill:none;stroke:#ec0000;stroke-width:2px;}</style></defs><title>electronica_icon</title><g id="Capa_2" data-name="Capa 2"><g id="Capa_1-2" data-name="Capa 1"><g id="PROTOTIPO-ACTUALIZADO"><g id="iconos_electronica" data-name="iconos electronica"><path id="Path" class="cls-1" d="M24.79,30H14.24a1.27,1.27,0,0,1-1.1-.53.86.86,0,0,1,.09-1L15.68,26h7.67l2.4,2.4a.85.85,0,0,1,.12,1.05,1.26,1.26,0,0,1-1.1.55Z"/><path class="cls-1" d="M34.65,26H3.35A2.36,2.36,0,0,1,1,23.63V3.37A2.36,2.36,0,0,1,3.35,1h31.3A2.36,2.36,0,0,1,37,3.37V23.56A2.36,2.36,0,0,1,34.65,26Z"/><path class="cls-1" d="M1,20.5H37"/><path class="cls-1" d="M32.25,35.83H6.75a.76.76,0,0,1-.62-.43A1.29,1.29,0,0,1,6,34.51l1.18-1.34H31.78L33,34.51a1.29,1.29,0,0,1-.09.89A.76.76,0,0,1,32.25,35.83Z"/></g></g></g></g></svg>