<svg xmlns="http://www.w3.org/2000/svg" viewBox="0 0 24 24"><defs><style>.cls-1,.cls-2{fill:none;}.cls-2{stroke:#ec0000;stroke-linecap:round;stroke-linejoin:round;stroke-width:0.6px;}</style></defs><title>icono_entretenimiento-butacas</title><g id="Layer_2" data-name="Layer 2"><g id="graficos"><rect class="cls-1" width="24" height="24"/><line class="cls-2" x1="11.17" y1="14.48" x2="6.21" y2="14.48"/><line class="cls-2" x1="11.17" y1="16.97" x2="6.21" y2="16.97"/><line class="cls-2" x1="11.17" y1="14.48" x2="6.21" y2="14.48"/><line class="cls-2" x1="17.79" y1="14.48" x2="12.9" y2="14.48"/><line class="cls-2" x1="17.79" y1="16.97" x2="12.9" y2="16.97"/><line class="cls-2" x1="17.79" y1="14.48" x2="12.9" y2="14.48"/><path class="cls-2" d="M12,11.15V8.78a2.13,2.13,0,0,0-2.21-2H7.59a2.13,2.13,0,0,0-2.21,2v2.37"/><path class="cls-2" d="M4.55,12.55H6.21v6.9a.55.55,0,0,1-.55.55H5.1a.55.55,0,0,1-.55-.55v-6.9Z"/><path class="cls-2" d="M11.17,12.55h1.66v6.9a.55.55,0,0,1-.55.55h-.56a.55.55,0,0,1-.55-.55v-6.9Z"/><rect class="cls-2" x="4" y="11.17" width="2.76" height="1.38" rx="0.55" ry="0.55"/><rect class="cls-2" x="10.62" y="11.17" width="2.76" height="1.38" rx="0.55" ry="0.55"/><path class="cls-2" d="M17.79,12.55h1.66v6.9a.55.55,0,0,1-.55.55h-.56a.55.55,0,0,1-.55-.55v-6.9Z"/><rect class="cls-2" x="17.24" y="11.17" width="2.76" height="1.38" rx="0.55" ry="0.55"/><rect class="cls-2" x="6.76" y="4" width="3.59" height="2.76" rx="1.1" ry="1.1"/><path class="cls-2" d="M18.62,11.15V8.78a2.13,2.13,0,0,0-2.21-2h-2.2a2.13,2.13,0,0,0-2.21,2v2.37"/><rect class="cls-2" x="13.66" y="4" width="3.59" height="2.76" rx="1.1" ry="1.1"/></g></g></svg>