<?xml version="1.0" encoding="UTF-8"?>
<svg width="20px" height="14px" viewBox="0 0 20 14" version="1.1" xmlns="http://www.w3.org/2000/svg" xmlns:xlink="http://www.w3.org/1999/xlink">
    <!-- Generator: Sketch 53.2 (72643) - https://sketchapp.com -->
    <title>Shape Copy</title>
    <desc>Created with Sketch.</desc>
    <g id="Page-1" stroke="none" stroke-width="1" fill="none" fill-rule="evenodd">
        <path d="M18.8525391,1.1362305 C18.8071289,1.0864868 18.753418,1.0488282 18.6957398,1.0220337 C18.0001831,0.3936768 17.0881958,0 16.0791016,0 L3.9208984,0 C1.7587891,0 0,1.7587891 0,3.9208984 L0,10.109375 C0,11.0126343 0.3219604,11.8342285 0.84021,12.4951782 C0.8557129,12.5227051 0.864563,12.5526733 0.8857422,12.5776367 C0.90271,12.5977173 0.9265137,12.6063232 0.9458008,12.6230469 C1.6599121,13.4584351 2.7078857,14 3.890625,14 L16.109375,14 C17.2902222,14 18.336792,13.4602051 19.0509033,12.6270752 C19.0720215,12.6092529 19.0977783,12.5994873 19.1162109,12.5776367 C19.1392822,12.5504761 19.1494751,12.5180664 19.1657714,12.487915 C19.680542,11.828125 20,11.0092163 20,10.109375 L20,3.9208984 C20,2.8618164 19.5740356,1.9031372 18.8893433,1.1968994 C18.8757935,1.177124 18.8692627,1.1543579 18.8525391,1.1362305 Z M16.0791016,1 C16.6851807,1 17.2484131,1.1860352 17.7156372,1.503418 L10.6621094,7.9941407 C10.2836914,8.3300782 9.7143555,8.3295899 9.3447266,7.9995118 L2.2879639,1.5004883 C2.7544556,1.1846924 3.3164673,1 3.9208984,1 L16.0791016,1 Z M1,3.9208984 C1,3.2760009 1.2168579,2.6847534 1.5723267,2.2009277 L6.7398072,6.9596557 L1.3760377,11.5066528 C1.1437988,11.0906372 1,10.6187134 1,10.109375 L1,3.9208984 Z M3.890625,13 C3.1675415,13 2.5136108,12.7236938 2.0061646,12.2832031 L7.4809571,7.6421509 L8.6733399,8.7402344 C9.0507813,9.0771485 9.5239258,9.2456055 9.9985352,9.2456055 C10.4741211,9.2456055 10.9511719,9.0756836 11.3330079,8.7353516 L12.5205079,7.6425171 L17.9947511,12.2824097 C17.4871826,12.7233887 16.8328857,13 16.109375,13 L3.890625,13 Z M19,10.109375 C19,10.6182251 18.8563843,11.0897827 18.6245117,11.5055542 L13.2619018,6.9602661 L18.4301757,2.2039795 C18.7841797,2.6871948 19,3.2774048 19,3.9208984 L19,10.109375 Z" id="Shape-Copy" fill="#EC0000"></path>
    </g>
</svg>