<svg xmlns="http://www.w3.org/2000/svg" width="44" height="44" viewBox="0 0 44 44">
    <g fill="none" fill-rule="evenodd">
        <path fill="#6F7779" fill-rule="nonzero" d="M16.161 11.919c-.53 0-5.183.144-5.208 5.137-.034 6.943 8.81 13.319 11.068 14.834 2.257-1.516 11.102-7.901 11.068-14.834-.025-4.993-4.678-5.137-5.208-5.137-4.075 0-4.874 3.311-4.906 3.452a.977.977 0 0 1-.954.753h-.006a.97.97 0 0 1-.95-.759c-.031-.135-.83-3.446-4.904-3.446M22.021 34a.99.99 0 0 1-.52-.146c-.51-.316-12.545-7.832-12.5-16.808C9.023 12.205 12.728 10 16.16 10c2.998 0 4.843 1.411 5.86 2.865C23.037 11.41 24.883 10 27.88 10c3.432 0 7.138 2.205 7.16 7.046.044 8.976-11.99 16.492-12.501 16.808a.99.99 0 0 1-.52.146"/>
        <!-- <circle cx="33.5" cy="13.5" r="5" fill="#EC0000"/> -->
    </g>
</svg>
