<svg xmlns="http://www.w3.org/2000/svg" viewBox="0 0 33.75 36"><defs><style>.cls-1{fill:none;stroke:#ec0000;stroke-width:2px;}</style></defs><title>hogar_icon</title><g id="Capa_2" data-name="Capa 2"><g id="Capa_1-2" data-name="Capa 1"><g id="PROTOTIPO-ACTUALIZADO"><g id="iconos_hogar" data-name="iconos hogar"><path id="Path" class="cls-1" d="M32.88,24,22,4.12A5.88,5.88,0,0,0,16.79,1h0a5.87,5.87,0,0,0-5,3.12L.88,24"/><path class="cls-1" d="M27.88,15V32.7A2.29,2.29,0,0,1,25.6,35H8.15a2.28,2.28,0,0,1-1.61-.67,2.36,2.36,0,0,1-.66-1.63V15"/><path class="cls-1" d="M15.6,22h3.6a2.61,2.61,0,0,1,2.68,2.53V35h-9V24.53a2.45,2.45,0,0,1,.8-1.8A2.74,2.74,0,0,1,15.6,22Z"/></g></g></g></g></svg>