<?xml version="1.0" encoding="UTF-8"?>
<svg width="38px" height="36px" viewBox="0 0 38 36" version="1.1" xmlns="http://www.w3.org/2000/svg" xmlns:xlink="http://www.w3.org/1999/xlink">
    <!-- Generator: Sketch 49.1 (51147) - http://www.bohemiancoding.com/sketch -->
    <title>icono_super-wallet</title>
    <desc>Created with Sketch.</desc>
    <defs></defs>
    <g id="PROTOTIPO-ACTUALIZADO" stroke="none" stroke-width="1" fill="none" fill-rule="evenodd">
        <g id="MIS-PUNTOS/01_MIS-PUNTOS_productos" transform="translate(-1140.000000, -549.000000)">
            <g id="icono_super-wallet" transform="translate(1129.000000, 537.000000)">
                <polygon id="Fill-2" points="0 60 59.9975 60 59.9975 0 0 0"></polygon>
                <path d="M41.44975,34.4835 C41.03225,34.4835 40.69475,34.146 40.69475,33.7285 C40.69475,33.311 41.03225,32.9735 41.44975,32.9735 C41.86725,32.9735 42.20475,33.311 42.20475,33.7285 C42.20475,34.146 41.86725,34.4835 41.44975,34.4835 M39.65475,12.036 C39.40725,12.036 39.15475,12.056 38.89725,12.096 L15.94475,15.721 C13.61225,16.0885 11.91725,18.071 11.91725,20.431 L11.91725,44.536 C11.91725,46.426 13.45475,47.9635 15.34475,47.9635 L44.65475,47.9635 C46.54475,47.9635 48.07975,46.426 48.07975,44.536 L48.07975,23.346 C48.07975,21.4585 46.54475,19.9185 44.65475,19.9185 L44.43975,19.9185 C44.45225,19.841 44.45975,19.761 44.45975,19.6785 L44.45975,16.8485 C44.45975,14.196 42.30475,12.036 39.65475,12.036 M41.44975,35.9835 C42.69475,35.9835 43.70475,34.9735 43.70475,33.7285 C43.70475,32.4835 42.69475,31.4735 41.44975,31.4735 C40.20475,31.4735 39.19475,32.4835 39.19475,33.7285 C39.19475,34.9735 40.20475,35.9835 41.44975,35.9835 M39.65475,13.5385 C41.44725,13.5385 42.95975,14.9935 42.95975,16.8485 L42.95975,19.6785 L17.13475,19.6785 C16.13225,19.6785 15.30725,20.446 15.21725,21.4235 C15.25975,21.421 15.30225,21.4185 15.34475,21.4185 L44.65475,21.4185 C45.71975,21.4185 46.58225,22.2835 46.58225,23.346 L46.58225,44.536 C46.58225,45.601 45.71975,46.4635 44.65475,46.4635 L15.34475,46.4635 C14.28225,46.4635 13.41975,45.601 13.41975,44.536 L13.41975,20.431 C13.41975,18.8235 14.58975,17.451 16.17975,17.201 L39.13225,13.5785 C39.30975,13.551 39.48225,13.5385 39.65475,13.5385" id="Fill-3" fill="#EC0000"></path>
            </g>
        </g>
    </g>
</svg>