<?xml version="1.0" encoding="UTF-8"?>
<svg width="50px" height="50px" viewBox="0 0 50 50" version="1.1" xmlns="http://www.w3.org/2000/svg" xmlns:xlink="http://www.w3.org/1999/xlink">
    <!-- Generator: Sketch 49.1 (51147) - http://www.bohemiancoding.com/sketch -->
    <title>icono-entretenimiento</title>
    <desc>Created with Sketch.</desc>
    <defs></defs>
    <g id="PROTOTIPO-ACTUALIZADO" stroke="none" stroke-width="1" fill="none" fill-rule="evenodd">
        <g id="MIS-PUNTOS/01_MIS-PUNTOS_productos" transform="translate(-1014.000000, -548.000000)">
            <g id="Group-2-Copy-11" transform="translate(970.000000, 527.000000)">
                <g id="icono-entretenimiento" transform="translate(33.000000, 10.000000)">
                    <polygon id="Fill-1" points="0 72 72 72 72 0 0 0"></polygon>
                    <path d="M33.5172984,43.4481049 L18.6203803,43.4481049" id="Stroke-2" stroke="#EC0000" stroke-width="1.525" stroke-linecap="round" stroke-linejoin="round"></path>
                    <path d="M33.5172984,50.896682 L18.6203803,50.896682" id="Stroke-3" stroke="#EC0000" stroke-width="1.525" stroke-linecap="round" stroke-linejoin="round"></path>
                    <path d="M33.5172984,43.4481049 L18.6203803,43.4481049" id="Stroke-4" stroke="#EC0000" stroke-width="1.525" stroke-linecap="round" stroke-linejoin="round"></path>
                    <path d="M53.3789115,43.4481049 L38.6944525,43.4481049" id="Stroke-5" stroke="#EC0000" stroke-width="1.525" stroke-linecap="round" stroke-linejoin="round"></path>
                    <path d="M53.3789115,50.896682 L38.6944525,50.896682" id="Stroke-6" stroke="#EC0000" stroke-width="1.525" stroke-linecap="round" stroke-linejoin="round"></path>
                    <path d="M53.3789115,43.4481049 L38.6944525,43.4481049" id="Stroke-7" stroke="#EC0000" stroke-width="1.525" stroke-linecap="round" stroke-linejoin="round"></path>
                    <g id="Group-28" transform="translate(11.803279, 11.803279)" stroke="#EC0000" stroke-linecap="round" stroke-linejoin="round" stroke-width="1.525">
                        <path d="M24.1968393,21.6437902 L24.1968393,14.5512 C24.1968393,11.1978885 21.2283148,8.47251148 17.5763803,8.47251148 L10.954741,8.47251148 C7.30280656,8.47251148 4.33428197,11.1978885 4.33428197,14.5512 L4.33428197,21.6437902" id="Stroke-8"></path>
                        <path d="M1.85134426,25.8521311 L6.81698361,25.8521311 L6.81698361,46.540918 C6.81698361,47.4556721 6.0757377,48.196918 5.16216393,48.196918 L3.50616393,48.196918 C2.59259016,48.196918 1.85134426,47.4556721 1.85134426,46.540918 L1.85134426,25.8521311 Z" id="Stroke-10"></path>
                        <path d="M21.7140197,25.8521311 L26.679659,25.8521311 L26.679659,46.540918 C26.679659,47.4556721 25.9384131,48.196918 25.0248393,48.196918 L23.3688393,48.196918 C22.4552656,48.196918 21.7140197,47.4556721 21.7140197,46.540918 L21.7140197,25.8521311 Z" id="Stroke-12"></path>
                        <path d="M1.85134426,21.7141377 L6.81698361,21.7141377 C7.73055738,21.7141377 8.47180328,22.4553836 8.47180328,23.3689574 L8.47180328,24.1975475 C8.47180328,25.1111213 7.73055738,25.8523672 6.81698361,25.8523672 L1.85134426,25.8523672 C0.937770492,25.8523672 0.197704918,25.1111213 0.197704918,24.1975475 L0.197704918,23.3689574 C0.197704918,22.4553836 0.937770492,21.7141377 1.85134426,21.7141377 Z" id="Stroke-14"></path>
                        <path d="M21.7140197,21.7141377 L26.679659,21.7141377 C27.5932328,21.7141377 28.3344787,22.4553836 28.3344787,23.3689574 L28.3344787,24.1975475 C28.3344787,25.1111213 27.5932328,25.8523672 26.679659,25.8523672 L21.7140197,25.8523672 C20.8004459,25.8523672 20.0592,25.1111213 20.0592,24.1975475 L20.0592,23.3689574 C20.0592,22.4553836 20.8004459,21.7141377 21.7140197,21.7141377 Z" id="Stroke-16"></path>
                        <path d="M41.5756328,25.8521311 L46.5412721,25.8521311 L46.5412721,46.540918 C46.5412721,47.4556721 45.8000262,48.196918 44.8864525,48.196918 L43.2304525,48.196918 C42.3168787,48.196918 41.5756328,47.4556721 41.5756328,46.540918 L41.5756328,25.8521311 Z" id="Stroke-18"></path>
                        <path d="M41.5756328,21.7141377 L46.5412721,21.7141377 C47.4548459,21.7141377 48.1960918,22.4553836 48.1960918,23.3689574 L48.1960918,24.1975475 C48.1960918,25.1111213 47.4548459,25.8523672 46.5412721,25.8523672 L41.5756328,25.8523672 C40.662059,25.8523672 39.9208131,25.1111213 39.9208131,24.1975475 L39.9208131,23.3689574 C39.9208131,22.4553836 40.662059,21.7141377 41.5756328,21.7141377 Z" id="Stroke-20"></path>
                        <path d="M11.782741,0.196760656 L15.9209705,0.196760656 C17.7492984,0.196760656 19.2317902,1.67925246 19.2317902,3.50758033 L19.2317902,5.1624 C19.2317902,6.99072787 17.7492984,8.47321967 15.9209705,8.47321967 L11.782741,8.47321967 C9.95441311,8.47321967 8.47192131,6.99072787 8.47192131,5.1624 L8.47192131,3.50758033 C8.47192131,1.67925246 9.95441311,0.196760656 11.782741,0.196760656 Z" id="Stroke-22"></path>
                        <path d="M44.0584525,21.6437902 L44.0584525,14.5512 C44.0584525,11.1978885 41.0899279,8.47251148 37.4379934,8.47251148 L30.8175344,8.47251148 C27.1644197,8.47251148 24.1970754,11.1978885 24.1970754,14.5512 L24.1970754,21.6437902" id="Stroke-24"></path>
                        <path d="M32.4730623,0.196760656 L36.6112918,0.196760656 C38.4396197,0.196760656 39.9209311,1.67925246 39.9209311,3.50758033 L39.9209311,5.1624 C39.9209311,6.99072787 38.4396197,8.47321967 36.6112918,8.47321967 L32.4730623,8.47321967 C30.6447344,8.47321967 29.1622426,6.99072787 29.1622426,5.1624 L29.1622426,3.50758033 C29.1622426,1.67925246 30.6447344,0.196760656 32.4730623,0.196760656 Z" id="Stroke-26"></path>
                    </g>
                </g>
            </g>
        </g>
    </g>
</svg>