<?xml version="1.0" encoding="UTF-8"?>
<svg width="36px" height="29px" viewBox="0 0 36 29" version="1.1" xmlns="http://www.w3.org/2000/svg" xmlns:xlink="http://www.w3.org/1999/xlink">
    <!-- Generator: Sketch 49.1 (51147) - http://www.bohemiancoding.com/sketch -->
    <title>icono-transfiere-puntos</title>
    <desc>Created with Sketch.</desc>
    <defs></defs>
    <g id="PROTOTIPO-ACTUALIZADO" stroke="none" stroke-width="1" fill="none" fill-rule="evenodd">
        <g id="MIS-PUNTOS/01_MIS-PUNTOS_productos" transform="translate(-637.000000, -558.000000)">
            <g id="Group-2-Copy-9" transform="translate(592.000000, 527.000000)">
                <g id="icono-transfiere-puntos" transform="translate(27.000000, 10.000000)">
                    <polygon id="Fill-1" points="0 71.7516 71.997 71.7516 71.997 0.0006 0 0.0006"></polygon>
                    <path d="M44.4531,41.6814 L53.7201,32.4144 C53.8581,32.2794 53.9331,32.0964 53.9331,31.9044 C53.9331,31.7124 53.8581,31.5294 53.7201,31.3944 L44.4531,22.1244 C44.1831,21.8544 43.7061,21.8514 43.4301,22.1274 C43.2951,22.2594 43.2201,22.4484 43.2201,22.6374 L43.2201,27.2094 L33.3531,27.2094 C32.9541,27.2094 32.6301,27.5334 32.6301,27.9324 C32.6301,28.3314 32.9541,28.6554 33.3531,28.6554 L43.9431,28.6554 C44.3421,28.6554 44.6661,28.3314 44.6661,27.9324 L44.6661,24.3834 L52.1871,31.9044 L44.6661,39.4254 L44.6661,35.8764 C44.6661,35.4774 44.3421,35.1534 43.9431,35.1534 L28.7781,35.1534 L28.7781,30.5814 C28.7781,30.1824 28.4541,29.8584 28.0551,29.8584 C27.8691,29.8584 27.6801,29.9334 27.5421,30.0684 L18.2781,39.3354 C18.1401,39.4704 18.0651,39.6534 18.0651,39.8484 C18.0651,40.0404 18.1401,40.2204 18.2751,40.3584 L27.5451,49.6254 C27.6801,49.7604 27.8661,49.8354 28.0581,49.8354 C28.1481,49.8324 28.2501,49.8174 28.3341,49.7844 C28.6071,49.6704 28.7781,49.4094 28.7781,49.1154 L28.7781,44.5434 L38.6451,44.5434 C39.0441,44.5434 39.3711,44.2194 39.3711,43.8174 C39.3711,43.4184 39.0441,43.0944 38.6451,43.0944 L28.0581,43.0944 C27.6591,43.0944 27.3351,43.4184 27.3351,43.8174 L27.3351,47.3664 L19.8111,39.8484 L27.3351,32.3274 L27.3351,35.8764 C27.3351,36.2754 27.6591,36.5994 28.0581,36.5994 L43.2201,36.5994 L43.2201,41.1714 C43.2201,41.7624 44.0301,42.1014 44.4531,41.6814" id="Fill-2" fill="#EC0000"></path>
                </g>
            </g>
        </g>
    </g>
</svg>