<?xml version="1.0" encoding="UTF-8"?>
<svg width="46px" height="43px" viewBox="0 0 46 43" version="1.1" xmlns="http://www.w3.org/2000/svg" xmlns:xlink="http://www.w3.org/1999/xlink">
    <!-- Generator: Sketch 49.1 (51147) - http://www.bohemiancoding.com/sketch -->
    <title>icono-donaciones</title>
    <desc>Created with Sketch.</desc>
    <defs></defs>
    <g id="PROTOTIPO-ACTUALIZADO" stroke="none" stroke-width="1" fill="none" fill-rule="evenodd">
        <g id="MIS-PUNTOS/01_MIS-PUNTOS_productos" transform="translate(-758.000000, -551.000000)">
            <g id="Group-2-Copy-10" transform="translate(718.000000, 527.000000)">
                <g id="icono-donaciones" transform="translate(27.000000, 10.000000)">
                    <polygon id="Fill-1" points="0 71.8032787 71.997 71.8032787 71.997 0.00299180328 0 0.00299180328"></polygon>
                    <g id="Group-6" transform="translate(13.200000, 14.360656)" fill="#EC0000">
                        <path d="M32.03888,0.187541189 C28.51928,0.187541189 25.20688,1.62936598 22.79888,4.17539057 C20.39368,1.62936598 17.07848,0.187541189 13.55888,0.187541189 C6.15008,0.187541189 0.12168,6.89022766 0.12168,15.1315986 C0.12168,21.8287502 3.74768,31.7748506 21.04048,41.1342584 C21.34288,41.2975361 21.56128,41.4110002 21.67328,41.4801857 C21.82448,41.6157891 22.02048,41.6988117 22.23888,41.6988117 L23.08168,41.6988117 C23.24408,41.6988117 23.40928,41.6489982 23.54648,41.5576734 L23.89928,41.3528844 C25.30208,40.5364961 27.11648,39.410157 29.08488,38.0458199 C28.67608,37.6611488 28.31488,37.2377338 27.97048,36.7949469 C26.10288,38.0817963 24.38368,39.1472523 23.04808,39.9193619 C22.97248,39.966408 22.90248,40.0023844 22.84648,40.0383609 L22.49368,40.0383609 C22.32568,39.9359664 22.11288,39.8197348 21.84688,39.6785965 C5.27648,30.7093947 1.79888,21.3776611 1.79888,15.1315986 C1.79888,7.80624303 7.07688,1.84799201 13.55888,1.84799201 C16.89928,1.84799201 20.02688,3.34793258 22.14368,5.96314262 C22.46008,6.3588834 23.13768,6.3588834 23.45688,5.96314262 C25.57088,3.34793258 28.70128,1.84799201 32.03888,1.84799201 C38.52088,1.84799201 43.79888,7.80624303 43.79888,15.1315986 C43.79888,17.2984869 43.28368,19.3989572 42.40448,21.4081027 C42.88048,21.7180535 43.30888,22.0805852 43.73168,22.4569541 C44.80968,20.132323 45.47888,17.683158 45.47888,15.1315986 C45.47888,6.89022766 39.44768,0.187541189 32.03888,0.187541189" id="Fill-2"></path>
                        <path d="M36.68464,29.425036 C34.53984,28.9407378 34.53984,28.0053505 34.53984,27.7009345 C34.53984,26.5275493 35.55904,25.9934376 36.49984,25.9934376 L36.50544,25.9934376 C37.29784,25.9934376 38.00344,26.4611313 38.30864,27.1806599 C38.42344,27.651121 38.87704,27.9416999 39.33064,27.8199335 C39.77864,27.7147716 40.05304,27.2664499 39.94944,26.823663 C39.92704,26.7268034 39.89064,26.6410134 39.84024,26.5662931 C39.38664,25.5146743 38.51584,24.7564017 37.44064,24.4658228 C37.36224,24.4464509 37.31464,24.3800329 37.31464,24.3053126 L37.31464,23.5940862 C37.31464,23.1374622 36.93664,22.7666282 36.47744,22.7666282 C36.01264,22.7666282 35.63464,23.1374622 35.63464,23.5940862 L35.63464,24.2859407 C35.63464,24.3634284 35.57864,24.4298464 35.50304,24.4464509 C33.96024,24.7674714 32.84024,26.1373433 32.84024,27.6953997 C32.84024,28.6473915 33.28824,30.3465862 36.28984,31.0384407 C38.43464,31.5227388 38.43464,32.4581261 38.43464,32.7653095 C38.43464,33.9386948 37.41824,34.470039 36.47744,34.470039 L36.47184,34.470039 C35.67944,34.470039 34.97384,34.0051128 34.66584,33.2828167 C34.53424,32.9479591 34.21784,32.7459376 33.87904,32.7459376 C33.78104,32.7459376 33.68304,32.7625421 33.58504,32.801286 C33.36944,32.8815411 33.20704,33.0365165 33.11464,33.238538 C33.02504,33.4405595 33.01944,33.6647204 33.09784,33.8695093 C33.10344,33.8722767 33.12024,33.9193228 33.12024,33.9220903 C33.55704,34.9488024 34.43064,35.7043075 35.51424,35.9948864 C35.58424,36.0142583 35.63464,36.0806763 35.63464,36.1553966 L35.63464,36.8666231 C35.63464,37.0907839 35.72144,37.2983403 35.88104,37.4533157 C36.04064,37.6138259 36.24784,37.6996159 36.47184,37.6996159 L36.47744,37.865661 L36.47744,37.6996159 C36.93664,37.6996159 37.31464,37.3287819 37.31464,36.8693905 L37.31464,36.177536 C37.31464,36.1000483 37.36784,36.0336302 37.44904,36.0170257 C39.00304,35.7043075 40.13424,34.337203 40.13424,32.7680769 C40.13424,31.8188526 39.68624,30.1196579 36.68464,29.425036" id="Fill-4"></path>
                    </g>
                </g>
            </g>
        </g>
    </g>
</svg>