<?xml version="1.0" encoding="UTF-8"?>
<svg width="48px" height="48px" viewBox="0 0 48 48" version="1.1" xmlns="http://www.w3.org/2000/svg" xmlns:xlink="http://www.w3.org/1999/xlink">
    <!-- Generator: Sketch 49.1 (51147) - http://www.bohemiancoding.com/sketch -->
    <title>icono-viajes</title>
    <desc>Created with Sketch.</desc>
    <defs></defs>
    <g id="PROTOTIPO-ACTUALIZADO" stroke="none" stroke-width="1" fill="none" fill-rule="evenodd">
        <g id="MIS-PUNTOS/01_MIS-PUNTOS_productos" transform="translate(-379.000000, -549.000000)">
            <g id="Group-2-Copy-5" transform="translate(340.000000, 527.000000)">
                <g id="icono-viajes" transform="translate(27.000000, 10.000000)">
                    <polygon id="Fill-1" points="0 72 72 72 72 0 0 0"></polygon>
                    <path d="M24.6,37.2003 C25.596,37.2003 26.4,36.3933 26.4,35.4003 L26.4,31.8003 C26.4,30.8073 25.596,30.0003 24.6,30.0003 C23.604,30.0003 22.8,30.8073 22.8,31.8003 L22.8,35.4003 C22.8,36.3933 23.604,37.2003 24.6,37.2003" id="Fill-3" fill="#FFFFFF"></path>
                    <path d="M24.6,37.2003 C25.596,37.2003 26.4,36.3933 26.4,35.4003 L26.4,31.8003 C26.4,30.8073 25.596,30.0003 24.6,30.0003 C23.604,30.0003 22.8,30.8073 22.8,31.8003 L22.8,35.4003 C22.8,36.3933 23.604,37.2003 24.6,37.2003 Z" id="Stroke-5" stroke="#EC0000" stroke-width="1.8" stroke-linecap="round" stroke-linejoin="round"></path>
                    <path d="M17.4003,40.7994 C18.3933,40.7994 19.2003,39.9924 19.2003,38.9994 L19.2003,35.3994 C19.2003,34.4064 18.3933,33.5994 17.4003,33.5994 C16.4043,33.5994 15.6003,34.4064 15.6003,35.3994 L15.6003,38.9994 C15.6003,39.9924 16.4043,40.7994 17.4003,40.7994" id="Fill-7" fill="#FFFFFF"></path>
                    <path d="M17.4003,40.7994 C18.3933,40.7994 19.2003,39.9924 19.2003,38.9994 L19.2003,35.3994 C19.2003,34.4064 18.3933,33.5994 17.4003,33.5994 C16.4043,33.5994 15.6003,34.4064 15.6003,35.3994 L15.6003,38.9994 C15.6003,39.9924 16.4043,40.7994 17.4003,40.7994 Z" id="Stroke-9" stroke="#EC0000" stroke-width="1.8" stroke-linecap="round" stroke-linejoin="round"></path>
                    <polygon id="Fill-11" fill="#FFFFFF" points="31.2006 31.2003 13.2006 40.8003 13.2006 45.6003 31.2006 38.4003"></polygon>
                    <polygon id="Stroke-13" stroke="#EC0000" stroke-width="1.8" stroke-linecap="round" stroke-linejoin="round" points="31.2006 31.2003 13.2006 40.8003 13.2006 45.6003 31.2006 38.4003"></polygon>
                    <path d="M47.4003,37.2003 C46.4043,37.2003 45.6003,36.3933 45.6003,35.4003 L45.6003,31.8003 C45.6003,30.8073 46.4043,30.0003 47.4003,30.0003 C48.3933,30.0003 49.2003,30.8073 49.2003,31.8003 L49.2003,35.4003 C49.2003,36.3933 48.3933,37.2003 47.4003,37.2003" id="Fill-15" fill="#FFFFFF"></path>
                    <path d="M47.4003,37.2003 C46.4043,37.2003 45.6003,36.3933 45.6003,35.4003 L45.6003,31.8003 C45.6003,30.8073 46.4043,30.0003 47.4003,30.0003 C48.3933,30.0003 49.2003,30.8073 49.2003,31.8003 L49.2003,35.4003 C49.2003,36.3933 48.3933,37.2003 47.4003,37.2003 Z" id="Stroke-17" stroke="#EC0000" stroke-width="1.8" stroke-linecap="round" stroke-linejoin="round"></path>
                    <path d="M54.6,40.7994 C53.604,40.7994 52.8,39.9924 52.8,38.9994 L52.8,35.3994 C52.8,34.4064 53.604,33.5994 54.6,33.5994 C55.596,33.5994 56.4,34.4064 56.4,35.3994 L56.4,38.9994 C56.4,39.9924 55.596,40.7994 54.6,40.7994" id="Fill-19" fill="#FFFFFF"></path>
                    <path d="M54.6,40.7994 C53.604,40.7994 52.8,39.9924 52.8,38.9994 L52.8,35.3994 C52.8,34.4064 53.604,33.5994 54.6,33.5994 C55.596,33.5994 56.4,34.4064 56.4,35.3994 L56.4,38.9994 C56.4,39.9924 55.596,40.7994 54.6,40.7994 Z" id="Stroke-21" stroke="#EC0000" stroke-width="1.8" stroke-linecap="round" stroke-linejoin="round"></path>
                    <polygon id="Fill-23" fill="#FFFFFF" points="40.7997 31.2003 58.7997 40.8003 58.7997 45.6003 40.7997 38.4003"></polygon>
                    <polygon id="Stroke-25" stroke="#EC0000" stroke-width="1.8" stroke-linecap="round" stroke-linejoin="round" points="40.7997 31.2003 58.7997 40.8003 58.7997 45.6003 40.7997 38.4003"></polygon>
                    <polygon id="Fill-27" fill="#FFFFFF" points="32.2833 50.4777 25.2003 55.1997 25.2003 57.5997 33.6003 56.3997"></polygon>
                    <polygon id="Stroke-29" stroke="#EC0000" stroke-width="1.8" stroke-linecap="round" stroke-linejoin="round" points="32.2833 50.4777 25.2003 55.1997 25.2003 57.5997 33.6003 56.3997"></polygon>
                    <polygon id="Fill-31" fill="#FFFFFF" points="39.7158 50.4777 46.7988 55.1997 46.7988 57.5997 38.4018 56.3997"></polygon>
                    <polygon id="Stroke-33" stroke="#EC0000" stroke-width="1.8" stroke-linecap="round" stroke-linejoin="round" points="39.7158 50.4777 46.7988 55.1997 46.7988 57.5997 38.4018 56.3997"></polygon>
                    <path d="M35.9994,58.7994 C37.8894,58.7994 38.3994,56.3994 38.3994,56.3994 L40.7994,45.5994 L40.7994,21.5994 C40.7994,16.7994 38.3994,13.1994 35.9994,13.1994 C33.5994,13.1994 31.1994,16.7994 31.1994,21.5994 L31.1994,45.5994 L33.5994,56.3994 C33.5994,56.3994 34.1094,58.7994 35.9994,58.7994" id="Fill-35" fill="#FFFFFF"></path>
                    <path d="M35.9994,58.7994 C37.8894,58.7994 38.3994,56.3994 38.3994,56.3994 L40.7994,45.5994 L40.7994,21.5994 C40.7994,16.7994 38.3994,13.1994 35.9994,13.1994 C33.5994,13.1994 31.1994,16.7994 31.1994,21.5994 L31.1994,45.5994 L33.5994,56.3994 C33.5994,56.3994 34.1094,58.7994 35.9994,58.7994 Z" id="Stroke-37" stroke="#EC0000" stroke-width="1.8" stroke-linecap="round" stroke-linejoin="round"></path>
                </g>
            </g>
        </g>
    </g>
</svg>