<?xml version="1.0" encoding="UTF-8"?>
<svg width="17px" height="16px" viewBox="0 0 17 16" version="1.1" xmlns="http://www.w3.org/2000/svg" xmlns:xlink="http://www.w3.org/1999/xlink">
    <!-- Generator: Sketch 51.2 (57519) - http://www.bohemiancoding.com/sketch -->
    <title>icono-corazon-fill</title>
    <desc>Created with Sketch.</desc>
    <defs></defs>
    <g id="PROTOTIPO-ACTUALIZADO" stroke="none" stroke-width="1" fill="none" fill-rule="evenodd">
        <g id="icono-corazon-fill">
            <path d="M0.3002,5.4001 C0.3002,2.6001 2.3002,0.3001 4.8002,0.3001 C6.1002,0.3001 7.3002,0.9001 8.1002,1.9001 C8.9002,0.9001 10.1002,0.3001 11.4002,0.3001 C13.9002,0.3001 15.9002,2.6001 15.9002,5.4001 C15.9002,10.5001 8.5002,14.5001 8.1992,14.7001 L7.9002,14.7001 C7.9002,14.6001 0.3002,11.2001 0.3002,5.4001" id="Fill-1" fill="#EC0000"></path>
            <path d="M0.3002,5.4001 C0.3002,2.6001 2.3002,0.3001 4.8002,0.3001 C6.1002,0.3001 7.3002,0.9001 8.1002,1.9001 C8.9002,0.9001 10.1002,0.3001 11.4002,0.3001 C13.9002,0.3001 15.9002,2.6001 15.9002,5.4001 C15.9002,10.5001 8.5002,14.5001 8.1992,14.7001 L7.9002,14.7001 C7.9002,14.6001 0.3002,11.2001 0.3002,5.4001" id="Stroke-3" stroke="#EC0000" stroke-width="0.6"></path>
        </g>
    </g>
</svg>