<svg xmlns="http://www.w3.org/2000/svg" viewBox="0 0 24.09 24.09">
  <defs>
    <style>
      .cls-1, .cls-2 {
        fill: #fff;
      }

      .cls-1, .cls-3 {
        stroke: #ec0000;
        stroke-miterlimit: 10;
      }

      .cls-1 {
        stroke-width: 0.6px;
      }

      .cls-3 {
        fill: #ed1c24;
        stroke-width: 0.2px;
      }
    </style>
  </defs>
  <title> Master_Iconos_recompensas</title>
  <g id="Layer_6" data-name="Layer 6">
    <g>
      <path class="cls-1" d="M15.64,19.92H8.45a2.74,2.74,0,0,1-2.74-2.74V10A2.74,2.74,0,0,1,8.45,7.24h7.2A2.74,2.74,0,0,1,18.38,10v7.2A2.74,2.74,0,0,1,15.64,19.92Z"/>
      <g>
        <path class="cls-2" d="M14.13,7.3a0,0,0,0,1,0,0,3.8,3.8,0,0,0,.94-.58,1.57,1.57,0,0,0,.17-2.23A1.52,1.52,0,0,0,14,4a1.6,1.6,0,0,0-1,.54A4.63,4.63,0,0,0,12,6.24h0a4.63,4.63,0,0,0-.88-1.71,1.6,1.6,0,0,0-1-.54,1.52,1.52,0,0,0-1.28.48A1.57,1.57,0,0,0,9,6.71a3.8,3.8,0,0,0,.94.58,0,0,0,0,1,0,0"/>
        <path class="cls-3" d="M14.13,7.48a.19.19,0,0,1-.08-.35,3.62,3.62,0,0,0,.89-.55,1.46,1.46,0,0,0,.5-1,1.3,1.3,0,0,0-.34-1A1.35,1.35,0,0,0,14,4.17a1.41,1.41,0,0,0-.9.48,4.36,4.36,0,0,0-.85,1.65.19.19,0,0,1-.18.13.19.19,0,0,1-.17-.13A4.36,4.36,0,0,0,11,4.65a1.42,1.42,0,0,0-.9-.48A1.35,1.35,0,0,0,9,4.6a1.3,1.3,0,0,0-.34,1,1.46,1.46,0,0,0,.5,1,3.61,3.61,0,0,0,.89.55.19.19,0,0,1-.08.35.18.18,0,0,1-.12,0,3.92,3.92,0,0,1-.93-.59,1.82,1.82,0,0,1-.62-1.27,1.66,1.66,0,0,1,.44-1.23,1.7,1.7,0,0,1,1.43-.54,1.78,1.78,0,0,1,1.14.6A4.21,4.21,0,0,1,12,5.7a4.2,4.2,0,0,1,.75-1.29,1.77,1.77,0,0,1,1.14-.6,1.71,1.71,0,0,1,1.43.54,1.66,1.66,0,0,1,.44,1.23,1.82,1.82,0,0,1-.62,1.27,3.91,3.91,0,0,1-.93.59A.18.18,0,0,1,14.13,7.48Z"/>
      </g>
      <g>
        <path class="cls-2" d="M18.5,9.4a2,2,0,0,0-2-2H7.64a2,2,0,0,0-2,2Z"/>
        <path class="cls-1" d="M18.5,9.58H5.59a.18.18,0,0,1-.18-.18A2.23,2.23,0,0,1,7.64,7.18h8.82A2.23,2.23,0,0,1,18.68,9.4.18.18,0,0,1,18.5,9.58Z"/>
      </g>
      <path class="cls-1" d="M11.19,19.84H12.9V7.21H11.19Z"/>
    </g>
  </g>
</svg>
