<svg xmlns="http://www.w3.org/2000/svg" width="48.33" height="39.629" viewBox="0 0 48.33 39.629">
  <g id="Fiduciario_Iconos_SuperNetFiduciario_Herramientas_290121" transform="translate(-0.843 -5.146)">
    <path id="Trazado_150" data-name="Trazado 150" d="M32.82,23h0l2.38.34a10.27,10.27,0,0,1,0,3.38L32.82,27h0A8.35,8.35,0,0,1,32,29.1L33.4,31A10,10,0,0,1,31,33.4L29.1,32h0a8.35,8.35,0,0,1-2.07.85h0l-.34,2.38a10.27,10.27,0,0,1-3.38,0L23,32.82h0A8.35,8.35,0,0,1,20.9,32h0L19,33.4A10,10,0,0,1,16.6,31L18,29.1a8.35,8.35,0,0,1-.82-2.1h0l-2.38-.34a10.27,10.27,0,0,1,0-3.38L17.18,23h0A8.35,8.35,0,0,1,18,20.9L16.6,19A10,10,0,0,1,19,16.6L20.9,18a8.35,8.35,0,0,1,2.1-.82h0l.34-2.38a10.27,10.27,0,0,1,3.38,0L27,17.18h0a8.35,8.35,0,0,1,2.1.82L31,16.6A10,10,0,0,1,33.4,19L32,20.9A8.35,8.35,0,0,1,32.82,23Z" fill="#fff" stroke="#ed1c24" stroke-linecap="round" stroke-linejoin="round" stroke-width="1.082"/>
    <path id="Trazado_151" data-name="Trazado 151" d="M37.1,10.1A19.29,19.29,0,0,0,5.54,25a19.83,19.83,0,0,0,.27,3.2" fill="none" stroke="#ed1c24" stroke-linecap="round" stroke-linejoin="round" stroke-width="1.082"/>
    <path id="Trazado_152" data-name="Trazado 152" d="M12,39.35A19.3,19.3,0,0,0,43.72,21" fill="none" stroke="#ed1c24" stroke-linecap="round" stroke-linejoin="round" stroke-width="1.082"/>
    <path id="Trazado_153" data-name="Trazado 153" d="M48.5,30.4s-2.87-9.61-4.76-9.79-6.54,8.7-6.54,8.7" fill="none" stroke="#ed1c24" stroke-linecap="round" stroke-linejoin="round" stroke-width="1.082"/>
    <path id="Trazado_154" data-name="Trazado 154" d="M12.79,19.46s-5.06,8.92-6.95,8.72S1.5,18.25,1.5,18.25" fill="none" stroke="#ed1c24" stroke-linecap="round" stroke-linejoin="round" stroke-width="1.082"/>
    <path id="Trazado_155" data-name="Trazado 155" d="M29,25a4,4,0,1,0-4,4A4,4,0,0,0,29,25Z" fill="none" stroke="#ed1c24" stroke-linecap="round" stroke-linejoin="round" stroke-width="1.082"/>
  </g>
</svg>
