<svg xmlns="http://www.w3.org/2000/svg" width="36.253" height="48.073" viewBox="0 0 36.253 48.073">
  <g id="Fiduciario_Iconos_SuperNetFiduciario_ConsultaEdoCuenta_290121" transform="translate(-6.873 -0.964)">
    <path id="Trazado_143" data-name="Trazado 143" d="M7.41,34.45v-26A6.92,6.92,0,0,1,14.32,1.5H42.59V41.58a6.92,6.92,0,0,1-6.92,6.92H7.41Z" fill="#fff" stroke="#444" stroke-linecap="round" stroke-linejoin="round" stroke-width="1.073"/>
    <line id="Línea_167" data-name="Línea 167" x2="20.86" transform="translate(14.53 8.78)" fill="#fff" stroke="#444" stroke-linecap="round" stroke-linejoin="round" stroke-width="1.073"/>
    <line id="Línea_168" data-name="Línea 168" x2="7.63" transform="translate(27.76 36.87)" fill="#fff" stroke="#444" stroke-linecap="round" stroke-linejoin="round" stroke-width="1.073"/>
    <path id="Trazado_144" data-name="Trazado 144" d="M19.7,38.43a6.11,6.11,0,0,1-3.19-1.12L17.25,36a5.25,5.25,0,0,0,3,1c1.61,0,2.51-.58,2.51-1.6,0-1.26-1.65-1.68-3.23-2.38-1.43-.63-2.78-1.45-2.78-3.26a3.07,3.07,0,0,1,2.94-3V24.33h1.65v2.4A5.7,5.7,0,0,1,24.1,27.8l-.81,1.26a4.75,4.75,0,0,0-2.78-.91c-1.28,0-2.09.54-2.09,1.52s1.28,1.58,2.68,2.16c1.63.68,3.4,1.45,3.4,3.31s-1.12,2.94-3.15,3.24V41H19.7Z" fill="#444"/>
    <line id="Línea_169" data-name="Línea 169" x2="7.63" transform="translate(27.76 16.28)" fill="#fff" stroke="#444" stroke-linecap="round" stroke-linejoin="round" stroke-width="1.073"/>
    <circle id="Elipse_27" data-name="Elipse 27" cx="2.54" cy="2.54" r="2.54" transform="translate(17.96 13.74)" fill="#fff" stroke="#444" stroke-linecap="round" stroke-linejoin="round" stroke-width="1.073"/>
    <line id="Línea_170" data-name="Línea 170" x2="7.63" transform="translate(27.76 26.33)" fill="#fff" stroke="#444" stroke-linecap="round" stroke-linejoin="round" stroke-width="1.073"/>
  </g>
</svg>
