<svg xmlns="http://www.w3.org/2000/svg" width="45.037" height="48.114" viewBox="0 0 45.037 48.114">
  <g id="Fiduciario_Iconos_SuperNetFiduciario_Notificaciones_290121" transform="translate(-2.487 -0.943)">
    <path id="Trazado_159" data-name="Trazado 159" d="M31.11,42.39a6.11,6.11,0,0,1-12.22,0" fill="none" stroke="#444" stroke-linejoin="round" stroke-width="1.114"/>
    <path id="Trazado_160" data-name="Trazado 160" d="M43.32,42.39H6.68a3.67,3.67,0,0,1-.56-7.29c2.1-2.3,2.71-4.86,3.78-9.32l.48-2c.19-.77.36-1.59.54-2.43C12.15,15.59,13.82,7.71,22.45,7h5c8.74.74,10.42,8.62,11.64,14.38.18.84.35,1.66.54,2.43l.48,2c1.07,4.46,1.68,7,3.78,9.32a3.67,3.67,0,0,1-.56,7.29Z" fill="none" stroke="#444" stroke-linejoin="round" stroke-width="1.114"/>
    <path id="Trazado_161" data-name="Trazado 161" d="M21.43,6.48V5.07a3.57,3.57,0,1,1,7.14,0V6.48" fill="none" stroke="#444" stroke-linejoin="round" stroke-width="1.114"/>
  </g>
</svg>
