<svg xmlns="http://www.w3.org/2000/svg" width="29.831" height="48.026" viewBox="0 0 29.831 48.026">
  <g id="Fiduciario_Iconos_SuperNetFiduciario_ConsultaSucursales_290121" transform="translate(-10.086 -0.947)">
    <path id="Trazado_149" data-name="Trazado 149" d="M27.11,1.65A15.08,15.08,0,0,0,25,1.5h0a15.08,15.08,0,0,0-2.11.15A14,14,0,0,0,10.8,17.54c.71,6.74,5.65,11.7,9.5,17.44a17.3,17.3,0,0,1,2.95,9.66v2.23a1.68,1.68,0,0,0,3.35,0v-2a17.278,17.278,0,0,1,2.9-9.578c3.881-5.862,9-10.872,9.7-17.732A14,14,0,0,0,27.11,1.65Z" fill="#fff" stroke="#444" stroke-linecap="round" stroke-linejoin="round" stroke-width="1.106"/>
    <circle id="Elipse_31" data-name="Elipse 31" cx="3.92" cy="3.92" r="3.92" transform="translate(21.08 10.94)" fill="none" stroke="#444" stroke-linecap="round" stroke-linejoin="round" stroke-width="1.106"/>
  </g>
</svg>
