<svg xmlns="http://www.w3.org/2000/svg" width="47.18" height="48.074" viewBox="0 0 47.18 48.074">
  <g id="Fiduciario_Iconos_SuperNetFiduciario_AutorizacionInstrucciones_290121" transform="translate(-1.41 -0.964)">
    <path id="Trazado_133" data-name="Trazado 133" d="M17.15,27.11H8a.81.81,0,0,1-.7-.41l-.17-.29a7,7,0,0,1-.94-3.52V17.56c.1-2.5,1.93-4.12,4.65-4.12a11.1,11.1,0,0,1,1.59.13c.36.06.73.14,1.1.24h.18a2.55,2.55,0,0,0,.61.11,3,3,0,0,0,.78-.15l.43-.12a10,10,0,0,1,2.26-.26c2.75,0,4.27,1.45,4.41,4.22v4.67" fill="#fff" stroke="#ed1c24" stroke-linecap="round" stroke-linejoin="round" stroke-width="1.076"/>
    <line id="Línea_161" data-name="Línea 161" x2="45.56" transform="translate(2.22 26.56)" fill="#fff" stroke="#ed1c24" stroke-linecap="round" stroke-linejoin="round" stroke-width="1.076"/>
    <path id="Trazado_134" data-name="Trazado 134" d="M29.71,27.77H23.57l.54-1.63h4.76Z" fill="#ed1c24"/>
    <path id="Trazado_135" data-name="Trazado 135" d="M41.89,27.77h5.89a.82.82,0,0,0,.81-.82.81.81,0,0,0-.81-.81h-5.2Z" fill="#ed1c24"/>
    <path id="Trazado_136" data-name="Trazado 136" d="M16.88,27.77H2.22A.82.82,0,0,1,1.41,27a.81.81,0,0,1,.81-.81H17.69" fill="#ed1c24"/>
    <path id="Trazado_137" data-name="Trazado 137" d="M32.56,8.25l-.45-2.81a3.1,3.1,0,0,1,.72-2.56,4.12,4.12,0,0,1,6.15,0,3.11,3.11,0,0,1,.73,2.56l-.45,2.8a3.35,3.35,0,1,1-6.7,0Z" fill="#fff" stroke="#ed1c24" stroke-linecap="round" stroke-linejoin="round" stroke-width="1.076"/>
    <path id="Trazado_138" data-name="Trazado 138" d="M11,8.25l-.44-2.81a3.07,3.07,0,0,1,.72-2.56,4.12,4.12,0,0,1,6.15,0,3.11,3.11,0,0,1,.73,2.56l-.45,2.81a3.53,3.53,0,0,1-3.35,3.23A3.53,3.53,0,0,1,11,8.25Z" fill="#fff" stroke="#ed1c24" stroke-linecap="round" stroke-linejoin="round" stroke-width="1.076"/>
    <path id="Trazado_139" data-name="Trazado 139" d="M41.39,47.87v-19l1.47-3a7,7,0,0,0,.93-3.49V17.66c-.13-2.7-1.83-4.22-4.66-4.22a7.91,7.91,0,0,0-2,.26l-.42.12a2.79,2.79,0,0,1-.79.15,2.55,2.55,0,0,1-.61-.11h-.18a10.261,10.261,0,0,0-1.1-.24,11,11,0,0,0-1.59-.13c-2.72,0-4.54,1.62-4.65,4.12V22.3a7,7,0,0,0,.93,3.49l1.47,3v19" fill="#fff" stroke="#ed1c24" stroke-linecap="round" stroke-linejoin="round" stroke-width="1.076"/>
    <line id="Línea_162" data-name="Línea 162" y2="15.05" transform="translate(35.9 32.82)" fill="#fff" stroke="#ed1c24" stroke-linecap="round" stroke-linejoin="round" stroke-width="1.076"/>
    <path id="Trazado_140" data-name="Trazado 140" d="M10.57,48.5a.68.68,0,0,1-.54-.27L2.69,38.66A2.76,2.76,0,1,1,7.06,35.3l3,3.88L19.3,23.87a2.754,2.754,0,1,1,4.75,2.79L11.17,48.16a.72.72,0,0,1-.55.34Z" fill="#fff" stroke="#ed1c24" stroke-linecap="round" stroke-linejoin="round" stroke-width="1.076"/>
  </g>
</svg>
