<svg xmlns="http://www.w3.org/2000/svg" width="41.829" height="48.108" viewBox="0 0 41.829 48.108">
  <g id="Fiduciario_Iconos_SuperNetFiduciario_AltaInstrucciones_290121" transform="translate(-4.106 -1.096)">
    <path id="Trazado_131" data-name="Trazado 131" d="M39.85,6.42V1.65H11.59A6.92,6.92,0,0,0,4.66,8.57V48.65H32.94a6.92,6.92,0,0,0,6.92-6.92V6.42Z" fill="#fff" stroke="#444" stroke-linecap="round" stroke-linejoin="round" stroke-width="1.108"/>
    <line id="Línea_157" data-name="Línea 157" x2="22.11" transform="translate(11.03 11.24)" fill="none" stroke="#444" stroke-linecap="round" stroke-linejoin="round" stroke-width="1.108"/>
    <line id="Línea_158" data-name="Línea 158" x2="22.11" transform="translate(11.03 19.43)" fill="none" stroke="#444" stroke-linecap="round" stroke-linejoin="round" stroke-width="1.108"/>
    <line id="Línea_159" data-name="Línea 159" x2="22.11" transform="translate(11.03 27.62)" fill="none" stroke="#444" stroke-linecap="round" stroke-linejoin="round" stroke-width="1.108"/>
    <line id="Línea_160" data-name="Línea 160" x2="12.49" transform="translate(11.03 35.82)" fill="none" stroke="#444" stroke-linecap="round" stroke-linejoin="round" stroke-width="1.108"/>
    <path id="Trazado_132" data-name="Trazado 132" d="M33.34,45.8a.6.6,0,0,1-.48-.23l-6.35-8.29a2.39,2.39,0,0,1,3.79-2.91l2.58,3.37,8-13.26A2.39,2.39,0,0,1,45,26.89L33.85,45.51a.59.59,0,0,1-.48.29Z" fill="#fff" stroke="#444" stroke-linecap="round" stroke-linejoin="round" stroke-width="1.108"/>
  </g>
</svg>
