<svg xmlns="http://www.w3.org/2000/svg" width="48.511" height="48.106" viewBox="0 0 48.511 48.106">
  <g id="Fiduciario_Iconos_SuperNetFiduciario_Home_290121" transform="translate(-0.745 -0.947)">
    <path id="Trazado_156" data-name="Trazado 156" d="M48.5,33.49,32.5,5.85A8.69,8.69,0,0,0,25,1.5h0a8.73,8.73,0,0,0-7.53,4.34L1.5,33.49" fill="none" stroke="#ed1c24" stroke-linecap="round" stroke-linejoin="round" stroke-width="1.106"/>
    <path id="Trazado_157" data-name="Trazado 157" d="M40.8,20.13V45.24a3.26,3.26,0,0,1-3.26,3.26H12.46A3.26,3.26,0,0,1,9.2,45.24V20.13" fill="none" stroke="#ed1c24" stroke-linejoin="round" stroke-width="1.106"/>
    <path id="Trazado_158" data-name="Trazado 158" d="M20.29,29.85h9.42a1.37,1.37,0,0,1,1.37,1.37V48.5H18.92V31.22a1.37,1.37,0,0,1,1.37-1.37Z" fill="none" stroke="#ed1c24" stroke-linecap="round" stroke-linejoin="round" stroke-width="1.106"/>
  </g>
</svg>
