<svg xmlns="http://www.w3.org/2000/svg" viewBox="0 0 120.13 135.79"><defs><style>.cls-1{fill:#ec0000;}</style></defs><title>Recurso 13</title><g id="Capa_2" data-name="Capa 2"><g id="Capa_1-2" data-name="Capa 1"><path class="cls-1" d="M10.89,21.78A10.89,10.89,0,1,0,0,10.89,10.9,10.9,0,0,0,10.89,21.78Zm0-17.19a6.3,6.3,0,1,1-6.3,6.3A6.3,6.3,0,0,1,10.89,4.59Z"/><path class="cls-1" d="M10.89,44.08A10.89,10.89,0,1,0,0,33.2,10.89,10.89,0,0,0,10.89,44.08Zm0-17.19a6.31,6.31,0,1,1-6.3,6.31A6.31,6.31,0,0,1,10.89,26.89Z"/><path class="cls-1" d="M33.63,21.78A10.89,10.89,0,1,0,22.74,10.89,10.91,10.91,0,0,0,33.63,21.78Zm0-17.19a6.3,6.3,0,1,1-6.3,6.3A6.31,6.31,0,0,1,33.63,4.59Z"/><path class="cls-1" d="M33.63,44.08A10.89,10.89,0,1,0,22.74,33.2,10.9,10.9,0,0,0,33.63,44.08Zm0-17.19a6.31,6.31,0,1,1-6.3,6.31A6.31,6.31,0,0,1,33.63,26.89Z"/><path class="cls-1" d="M104.21,52.18h-1.75a14.56,14.56,0,0,0-9.15-2.73h-7.2A14.6,14.6,0,0,0,77,46.73H71.67v-33a1.48,1.48,0,0,0,0-.21C71.26,9,68.15.55,59.31.55S47.63,9.11,47.42,13.74V66.53l-3.36,1-4.65-2.44a10.9,10.9,0,1,0-16.36-6.67c-.53,0-1.06,0-1.6.06a10.65,10.65,0,0,0,.33-2.6A10.89,10.89,0,1,0,10.22,66.74a1,1,0,0,0,0,.1,10.47,10.47,0,0,0,2,9.23l26.28,33,11.23,19.23a9.92,9.92,0,0,0,9.65,7.5H94.06a10,10,0,0,0,9.62-7.22c1.3-4.67,3.7-9.24,5.13-10.57,7.51-7,11.32-17.32,11.32-30.69V73.55C120.13,60.37,114,52.18,104.21,52.18Zm-70.58-2.6a6.3,6.3,0,0,1,.21,12.59l-1.15-.6a16.71,16.71,0,0,0-4.3-2.22c-.1-.14-.2-.28-.28-.42a6.31,6.31,0,0,1,5.52-9.35ZM10.89,62.18a6.32,6.32,0,1,1,4.7-2.12,10.54,10.54,0,0,0-2.41,1.69A6.43,6.43,0,0,1,10.89,62.18ZM115.54,87.31c0,12-3.32,21.25-9.86,27.34-2.56,2.39-5.17,8.19-6.42,12.69a5.37,5.37,0,0,1-5.2,3.86H59.38a5.39,5.39,0,0,1-5.28-4.29.54.54,0,0,1,0-.1,1.84,1.84,0,0,0-.09-.25.72.72,0,0,0-.09-.2l0-.12L42.38,106.6l-.19-.27L15.79,73.19A5.94,5.94,0,0,1,14.63,68a5.85,5.85,0,0,1,1.25-2.41,11,11,0,0,0,2.38-1.67,12.32,12.32,0,0,1,7.44-.55l.1.12a2.29,2.29,0,0,0,2.11.64,13,13,0,0,1,2.22,1.29,1.75,1.75,0,0,0,.29.18L42.76,72l.28.11.1,0a2.38,2.38,0,0,0,.88.09h.08l.32-.06,2.17-.58a2.31,2.31,0,0,0,.51-.22l3.27-1A2.3,2.3,0,0,0,52,68.24V13.86c0-.36.55-8.72,7.31-8.72,6.56,0,7.66,7.76,7.77,8.72V49a2.3,2.3,0,0,0,2.3,2.3H77c3,0,5.23.71,6.76,2.12a2.28,2.28,0,0,0,1.55.6h8c3,0,5.23.72,6.76,2.12a2.29,2.29,0,0,0,1.55.61h2.59c10.22,0,11.33,11.73,11.33,16.78Z"/></g></g></svg>