<svg xmlns="http://www.w3.org/2000/svg" viewBox="0 0 107.18 130.98"><defs><style>.cls-1{fill:#ec0000;}</style></defs><title>Recurso 11</title><g id="Capa_2" data-name="Capa 2"><g id="Capa_1-2" data-name="Capa 1"><path class="cls-1" d="M67.93,30.5a2.52,2.52,0,0,0-2,.42L63.78,3.68A4,4,0,0,0,59.48,0L41.54,1.44a2,2,0,0,0-1.83,2.15c.26,3.3-3.1,6.26-7.5,6.61s-8.18-2-8.44-5.35A2,2,0,0,0,21.62,3L3.68,4.44A4,4,0,0,0,0,8.74L6.34,88.45a4,4,0,0,0,4.3,3.67l14-1.12a2.87,2.87,0,0,0,.18.4l14.33,24.87a3.77,3.77,0,0,1,.51,1.89v10.3A2.52,2.52,0,0,0,42.21,131H95.09a12.11,12.11,0,0,0,12.09-12.1V84C107.18,53.76,94.34,36.26,67.93,30.5ZM59.79,4l3.86,48.65L59.3,48.29l-3.49-44ZM4,8.42l4-.31,5.38,67.75-4,.32Zm6.32,79.71-.63-8,4-.31.64,8ZM26.5,86.85l-8.21.65L12,7.79l8.21-.65c1.47,4.46,6.56,7.5,12.35,7s10.33-4.26,11.08-8.9l8.21-.65L55,44.37a21.42,21.42,0,0,0-2.43-1.46A19.15,19.15,0,0,0,41.93,41l-1.69-4.27,4.91-3.86a1.69,1.69,0,0,0,.76-1.73,2,2,0,0,0-2.15-1.84L39,29.71l-4-6.6h0a2,2,0,0,0-3.52.28h0l-2.89,7.14-4.75.37A2,2,0,0,0,22,33.06a1.68,1.68,0,0,0,1,1.59l5.46,3.05L27,44.22a1.87,1.87,0,0,0,2.09,2.32,1.88,1.88,0,0,0,1.06-.45l4.63-3.61,1.15.64a9.89,9.89,0,0,0-2.61,13.06L50.57,84.94l-.64,0c-1.47-4.46-6.56-7.5-12.34-7S27.25,82.21,26.5,86.85Zm75.65,32a7.07,7.07,0,0,1-7.06,7.06H44.73v-7.78a8.85,8.85,0,0,0-1.18-4.41L29.89,90.05a2,2,0,0,0,.52-1.5c-.26-3.31,3.09-6.27,7.49-6.61s8.19,2,8.45,5.34a2,2,0,0,0,2.15,1.83l3-.23a32.14,32.14,0,0,0,8.93,17.94A2.52,2.52,0,0,0,64,103.26a22.79,22.79,0,0,1-6.36-10.38,26.18,26.18,0,0,1-1.09-4.4h0a28.28,28.28,0,0,1-.45-4s-5.38-8.24-8-13.46c-.07-.14-.14-.28-.22-.42l-4.78-8C38.29,55.5,34.43,51,37.89,48.17a4.85,4.85,0,0,1,2.73-1.82,14.53,14.53,0,0,1,3.82-.41c.31,0,.61,0,.92.06l.28,0,.43.07a13.71,13.71,0,0,1,4.22,1.31,14.06,14.06,0,0,1,3.55,2.53l1.71,1.72c3.88,3.73,23.92,23.93,23.92,23.93A2.51,2.51,0,0,0,83,72L68,57l-1.73-21.8a2.23,2.23,0,0,0,.58.21C90.94,40.67,102.15,56.11,102.15,84Z"/></g></g></svg>