<svg xmlns="http://www.w3.org/2000/svg" viewBox="0 0 100.98 147.8"><defs><style>.cls-1{fill:#ec0000;}</style></defs><title>Recurso 14</title><g id="Capa_2" data-name="Capa 2"><g id="Capa_1-2" data-name="Capa 1"><path class="cls-1" d="M63.84,47.83l.06-35.55A12.29,12.29,0,0,0,51.63,0H12.27A12.29,12.29,0,0,0,0,12.28V97.59a12,12,0,0,0,12.27,12h7.16L33,133.09A3.83,3.83,0,0,1,33.5,135v10.31A2.51,2.51,0,0,0,36,147.8H88.89A12.1,12.1,0,0,0,101,135.71V100.84C101,71.41,88.83,54.05,63.84,47.83ZM5,97.59V12.28A7.25,7.25,0,0,1,12.27,5H51.63a7.25,7.25,0,0,1,7.24,7.24L58.81,49c0,.08-.06.15-.08.23a2.63,2.63,0,0,0,.08,1.31l0,20.23-7.59-7.6a19,19,0,0,0-18-4.89A9.9,9.9,0,0,0,27.11,73l17.94,29.9c0,.54.05,1.08.1,1.62H21.38a2.75,2.75,0,0,0-1.07,0h-8A7,7,0,0,1,5,97.59ZM96,135.71a7.07,7.07,0,0,1-7.06,7.06H38.53V135a8.84,8.84,0,0,0-1.18-4.4l-12.11-21H46.08a32.33,32.33,0,0,0,8.13,14.1,2.54,2.54,0,0,0,3.56,0,2.52,2.52,0,0,0,0-3.56,26.74,26.74,0,0,1-7.7-17.9,2.44,2.44,0,0,0-.36-1.29L31.43,70.42a4.87,4.87,0,0,1,3-7.24,14,14,0,0,1,13.22,3.58L73.27,92.42a2.52,2.52,0,0,0,3.56-3.56l-13-13s0-.08,0-.12l0-22.66C85.72,58.92,96,74.2,96,100.84Z"/><path class="cls-1" d="M21,17.3a2.42,2.42,0,0,0,.95-.2,2.22,2.22,0,0,0,.81-.54,2.5,2.5,0,0,0,.74-1.78,2.73,2.73,0,0,0-.05-.5,2.1,2.1,0,0,0-.14-.47,2.4,2.4,0,0,0-.23-.42,1.71,1.71,0,0,0-.32-.39,2.83,2.83,0,0,0-.37-.32,2.6,2.6,0,0,0-.44-.23,3.64,3.64,0,0,0-.47-.14,2.54,2.54,0,0,0-2.28.69,2.37,2.37,0,0,0-.3.39,1.91,1.91,0,0,0-.24.42,2.84,2.84,0,0,0-.15.47,4.07,4.07,0,0,0,0,.5,2.44,2.44,0,0,0,.74,1.78,2.27,2.27,0,0,0,.8.54A2.49,2.49,0,0,0,21,17.3Z"/><path class="cls-1" d="M29.38,17.29H44.2a2.52,2.52,0,1,0,0-5H29.38a2.52,2.52,0,0,0,0,5Z"/></g></g></svg>