<svg xmlns="http://www.w3.org/2000/svg" viewBox="0 0 100.27 92.92"><defs><style>.cls-1{fill:#ec0000;}</style></defs><title>Recurso 12</title><g id="Capa_2" data-name="Capa 2"><g id="Capa_1-2" data-name="Capa 1"><path class="cls-1" d="M50.13,92.92a4.27,4.27,0,0,1-2-.5c-1-.51-23.16-12.61-37-30.51A2.41,2.41,0,1,1,14.93,59C27.52,75.22,47.44,86.54,50.13,88A141.16,141.16,0,0,0,73.55,71.45c10-8.84,21.9-22.57,21.9-37.84,0-15.88-11.27-28.79-25.13-28.79A23.45,23.45,0,0,0,52,14a2.5,2.5,0,0,1-3.74,0C43.47,8.06,37,4.82,29.94,4.82,16.09,4.82,4.82,17.73,4.82,33.61A33,33,0,0,0,6.73,44.44l1.19,3.17,17.2.1,8.17-22.87A4.1,4.1,0,0,1,37.38,22a4.25,4.25,0,0,1,3.89,2.79L53,57l4.57-7.3a4.21,4.21,0,0,1,3.6-2H74a2.41,2.41,0,1,1,0,4.82H61.46l-7,11.22a2.41,2.41,0,0,1-4.31-.45L37.29,28l-8.21,23a2.41,2.41,0,0,1-2.27,1.6h0L6.24,52.42A2.42,2.42,0,0,1,4,50.85L2.2,46.07A37.74,37.74,0,0,1,0,33.61C0,15.08,13.43,0,29.94,0A27.78,27.78,0,0,1,50.13,8.8,27.8,27.8,0,0,1,70.32,0c16.51,0,30,15.08,30,33.61,0,32.6-46.16,57.75-48.13,58.81a4.28,4.28,0,0,1-2,.5"/></g></g></svg>