<svg xmlns="http://www.w3.org/2000/svg" width="48.07" height="34.095" viewBox="0 0 48.07 34.095">
  <g id="Fiduciario_Iconos_SuperNetFiduciario_ConsultaBancos_290121" transform="translate(-0.965 -7.94)">
    <path id="Trazado_141" data-name="Trazado 141" d="M12.2,16.8H5.8a.789.789,0,0,0-.8.8V38.3H2.3a.789.789,0,0,0-.8.8v1.6a.789.789,0,0,0,.8.8H47.7a.789.789,0,0,0,.8-.8V39.1a.789.789,0,0,0-.8-.8H45V17.6a.789.789,0,0,0-.8-.8H38m1.6-3.6c-8-6.3-21.1-6.3-29.2,0m6.4,25.1v-10h7.4v10Zm16.4-10v10H25.9v-10Z" fill="#fff" stroke="#ed1c24" stroke-linecap="round" stroke-linejoin="round" stroke-width="1.07"/>
    <line id="Línea_163" data-name="Línea 163" x2="40" transform="translate(5 23.4)" fill="none" stroke="#ed1c24" stroke-linecap="round" stroke-linejoin="round" stroke-width="1.07"/>
    <line id="Línea_164" data-name="Línea 164" y2="11.5" transform="translate(12.2 11.9)" fill="none" stroke="#ed1c24" stroke-linecap="round" stroke-linejoin="round" stroke-width="1.07"/>
    <line id="Línea_165" data-name="Línea 165" y2="11.5" transform="translate(37.8 11.9)" fill="none" stroke="#ed1c24" stroke-linecap="round" stroke-linejoin="round" stroke-width="1.07"/>
    <line id="Línea_166" data-name="Línea 166" x1="32.8" transform="translate(8.6 38.4)" fill="none" stroke="#ed1c24" stroke-linecap="round" stroke-linejoin="round" stroke-width="1.07"/>
    <path id="Trazado_142" data-name="Trazado 142" d="M26.4,15.2a1.072,1.072,0,0,0-.2-.6l-1-1.8c-.1-.1-.1-.3-.2-.4v.1a1.708,1.708,0,0,0,0,1.4l.8,1.4a1.2,1.2,0,0,1,0,1.4v.1a.52.52,0,0,0-.2-.4L24.9,15l-.5-.8c-.1-.1-.1-.3-.2-.4v.1a1.2,1.2,0,0,0,0,1.4h0l.8,1.4a1.708,1.708,0,0,1,0,1.4v.1a.52.52,0,0,0-.2-.4l-1-1.8a1.884,1.884,0,0,1-.2-.8c-1.1.3-1.9.9-1.9,1.6,0,1,1.5,1.8,3.3,1.8s3.3-.8,3.3-1.8C28.3,16.1,27.5,15.5,26.4,15.2Z" fill="#ed1c24"/>
  </g>
</svg>
