<svg xmlns="http://www.w3.org/2000/svg" width="48.371" height="48.191" viewBox="0 0 48.371 48.191">
  <g id="Fiduciario_Iconos_SuperNetFiduciario_Paperless_290121" transform="translate(-0.864 -0.945)">
    <path id="Trazado_162" data-name="Trazado 162" d="M1.5,48.5l2-.33a127.29,127.29,0,0,1,43.1,0l2,.33" fill="#fff" stroke="#444" stroke-linecap="round" stroke-linejoin="round" stroke-width="1.106"/>
    <line id="Línea_172" data-name="Línea 172" y2="28.37" transform="translate(25 17.34)" fill="#fff" stroke="#444" stroke-linecap="round" stroke-linejoin="round" stroke-width="1.106"/>
    <path id="Trazado_163" data-name="Trazado 163" d="M25,28.32a1.9,1.9,0,0,1-1.9,1.9H16C6.22,30.22,1.5,23.42,1.5,15v-.3a19.73,19.73,0,0,1,7.69-1.43H9.6C18,13.27,25,18,25,25.87Z" fill="#fff" stroke="#444" stroke-linecap="round" stroke-linejoin="round" stroke-width="1.106"/>
    <path id="Trazado_164" data-name="Trazado 164" d="M25,16.6a1.9,1.9,0,0,0,1.9,1.91H34c9.75,0,14.47-6.67,14.47-15V2.93A19.73,19.73,0,0,0,40.81,1.5H40.4C32,1.5,25,6.22,25,16Z" fill="#fff" stroke="#444" stroke-linecap="round" stroke-linejoin="round" stroke-width="1.106"/>
  </g>
</svg>
