<svg xmlns="http://www.w3.org/2000/svg" viewBox="0 0 31.16 36.31"><defs><style>.cls-1{fill:#ec0000;fill-rule:evenodd;}</style></defs><title>PROTOTIPO-ACTUALIZADO</title><g id="Capa_2" data-name="Capa 2"><g id="Capa_1-2" data-name="Capa 1"><g id="PROTOTIPO-ACTUALIZADO"><path id="Infantiles_icon-Copy" data-name="Infantiles icon-Copy" class="cls-1" d="M28.4,16.35a4.36,4.36,0,0,1-1.6,8.41h-.14a4,4,0,0,1-1.47-.3v1.86A4.19,4.19,0,0,1,27.33,30v2.15a4.2,4.2,0,0,1-4.2,4.2,4.13,4.13,0,0,1-2.73-1,11.5,11.5,0,0,1-9.56,0A4.18,4.18,0,0,1,3.9,32.11V30a4.18,4.18,0,0,1,2.15-3.64V23.87l-.15.05a4.16,4.16,0,0,1-1.6.28,4.37,4.37,0,0,1-1.49-8.46l5.27-1.21a8.45,8.45,0,0,1-1-3.89,8.37,8.37,0,0,1,.36-2.3,4.19,4.19,0,1,1,4.61-5.4,8.26,8.26,0,0,1,7.05,0,4.19,4.19,0,1,1,4.62,5.4,8.76,8.76,0,0,1,.35,2.3A8.52,8.52,0,0,1,23,14.81ZM23.13,2a2.23,2.23,0,0,0-2.21,2.1,8.58,8.58,0,0,1,2,2.35l.19,0a2.24,2.24,0,1,0,0-4.48ZM19.24,5.21a6.5,6.5,0,0,0-7.31,0l-.12.1a6.46,6.46,0,0,0-1.32,9.3,2.8,2.8,0,0,0,.41.46,6.47,6.47,0,0,0,4.72,2.06,6.35,6.35,0,0,0,4.71-2,3.25,3.25,0,0,0,.42-.45,6.52,6.52,0,0,0-1.46-9.43S19.25,5.23,19.24,5.21ZM8.1,6.44l.19,0a8.44,8.44,0,0,1,2-2.33A2.22,2.22,0,1,0,8.1,6.44ZM5.18,22.1l.91-.35a9.36,9.36,0,0,1,2-5.22L3.38,17.61a2.42,2.42,0,0,0,1,4.63A2.2,2.2,0,0,0,5.18,22.1ZM8.1,34.35a2.24,2.24,0,0,0,2.24-2.24V30a2.24,2.24,0,0,0-4.48,0v2.15A2.24,2.24,0,0,0,8.1,34.35Zm17.27-2.24V30a2.24,2.24,0,0,0-4.48,0v2.15a2.24,2.24,0,0,0,4.48,0Zm-2.24-6.35h.09V22.45A7.62,7.62,0,0,0,21,17.11a8.23,8.23,0,0,1-10.78,0A7.4,7.4,0,0,0,8,22.45v3.32H8.1A4.21,4.21,0,0,1,12.3,30v2.15A4.29,4.29,0,0,1,12,33.64a9.79,9.79,0,0,0,7.22,0,4.09,4.09,0,0,1-.3-1.53V30A4.21,4.21,0,0,1,23.13,25.76Zm5.93-4.55a2.4,2.4,0,0,0-1.31-3L23.44,17a9.5,9.5,0,0,1,1.73,5.35l.7.3a2.1,2.1,0,0,0,.9.18A2.45,2.45,0,0,0,29.06,21.21Zm-13.48-7a2,2,0,1,1,2-2A2,2,0,0,1,15.58,14.23Zm1-2h0Z"/></g></g></g></svg>