<?xml version="1.0" encoding="UTF-8"?>
<svg width="16px" height="17px" viewBox="0 0 16 17" version="1.1" xmlns="http://www.w3.org/2000/svg" xmlns:xlink="http://www.w3.org/1999/xlink">
    <!-- Generator: sketchtool 57.1 (101010) - https://sketch.com -->
    <title>5D2962A6-5EB6-493E-8088-4AF998B4AC07</title>
    <desc>Created with sketchtool.</desc>
    <g id="Web" stroke="none" stroke-width="1" fill="none" fill-rule="evenodd">
        <g id="MIS-PUNTOS/01_MIS-PUNTOS_donaciones_unfold-Copy" transform="translate(-298.000000, -1161.000000)" fill="#EC0000">
            <g id="FUNC/FUNC075" transform="translate(294.000000, 1157.500000)">
                <path d="M8.5048828,4 C8.78125,4 9.0048828,4.2236328 9.0048828,4.5 C9.0048828,4.7763672 8.78125,5 8.5048828,5 L8.5048828,5 L7.9726562,5 C6.3339844,5 5,6.3339844 5,7.9726562 L5,7.9726562 L5,16.0244141 C5,17.6630859 6.3339844,18.9970703 7.9726562,18.9970703 L7.9726562,18.9970703 L16.0273438,18.9970703 C17.6660156,18.9970703 19,17.663086 19,16.0244141 L19,16.0244141 L19,15.4970703 C19,15.2207031 19.2236328,14.9970703 19.5,14.9970703 C19.7763672,14.9970703 20,15.2207031 20,15.4970703 L20,15.4970703 L20,16.0244141 C20,18.2148438 18.2177734,19.9970702 16.0273437,19.9970702 L16.0273437,19.9970702 L7.9726562,19.9970702 C5.7822266,19.9970702 4,18.2148437 4,16.024414 L4,16.024414 L4,7.9726562 C4,5.7822266 5.7822266,4 7.9726562,4 L7.9726562,4 Z M19.4746094,4.0253906 C19.5396729,4.0253906 19.6044312,4.0385741 19.6655274,4.0638427 C19.7879639,4.1145019 19.8854981,4.2120361 19.9361573,4.3344726 C19.9614258,4.3955688 19.9746094,4.4603271 19.9746094,4.5253906 L19.9746094,4.5253906 L19.9746094,9.7675781 C19.9746094,10.0439453 19.7509766,10.2675781 19.4746094,10.2675781 C19.1982422,10.2675781 18.9746094,10.0439453 18.9746093,9.767578 L18.9746093,9.767578 L18.9746093,5.7324218 L12.3740234,12.3330077 C12.2763672,12.430664 12.1484375,12.4794921 12.0205078,12.4794921 C11.8925781,12.4794921 11.7646484,12.4306639 11.6669922,12.3330077 C11.4716797,12.1376953 11.4716797,11.821289 11.6669922,11.6259765 L11.6669922,11.6259765 L18.2675781,5.0253906 L14.2324219,5.0253906 C13.9560547,5.0253906 13.7324219,4.8017578 13.7324219,4.5253906 C13.7324219,4.2490234 13.9560547,4.0253906 14.2324219,4.0253906 L14.2324219,4.0253906 Z" id="Combined-Shape"></path>
            </g>
        </g>
    </g>
</svg>