<svg xmlns="http://www.w3.org/2000/svg" viewBox="0 0 24.09 24.09">
  <defs>
    <style>
      .cls-1 {
        fill: #ec0000;
      }

      .cls-2 {
        fill: none;
        stroke: #ec0000;
        stroke-linecap: round;
        stroke-miterlimit: 10;
        stroke-width: 0.7px;
      }
    </style>
  </defs>
  <title> Master_Iconos_recompensas</title>
  <g id="Layer_6" data-name="Layer 6">
    <g>
      <path class="cls-1" d="M9.32,19.21l-.23,0a1,1,0,0,1-.77-1V15.87a1.14,1.14,0,0,0,0-.22h0A5.4,5.4,0,0,1,4,10.44,5.34,5.34,0,0,1,5.57,6.57a5.64,5.64,0,0,1,4-1.69h5.06a5.44,5.44,0,0,1,5.44,5.6,5.54,5.54,0,0,1-5.55,5.29H12a.28.28,0,0,0-.24.14l-1.62,2.81A1,1,0,0,1,9.32,19.21ZM9.57,5.42A5.09,5.09,0,0,0,6,6.95a4.8,4.8,0,0,0-1.4,3.48,4.85,4.85,0,0,0,3.85,4.68c.46.1.46.51.46.76v2.31a.47.47,0,0,0,.34.47.45.45,0,0,0,.49-.21l1.62-2.81a.83.83,0,0,1,.72-.41h2.48a5,5,0,0,0,5-4.76,4.9,4.9,0,0,0-4.89-5ZM8.32,15.66Z"/>
      <g>
        <line class="cls-2" x1="8.58" y1="8.18" x2="15.51" y2="8.18"/>
        <line class="cls-2" x1="8.58" y1="10.41" x2="15.51" y2="10.41"/>
        <line class="cls-2" x1="8.58" y1="12.64" x2="15.51" y2="12.64"/>
      </g>
    </g>
  </g>
</svg>
