<svg xmlns="http://www.w3.org/2000/svg" width="44" height="44" viewBox="0 0 44 44">
    <g fill="none" fill-rule="evenodd">
        <path fill="#6F7779" fill-rule="nonzero" d="M28.864 29.399c.393 0 .542-.113.62-.37.085-.28.054-.706-.063-1.048-.23-.67-.507-1.153-.858-1.566a5.642 5.642 0 0 0-.39-.412c-.055-.053-.337-.319-.416-.396-.733-.718-1.055-1.388-1.055-2.53v-5.298c0-1.705-.702-2.83-1.94-3.541-.883-.508-1.99-.753-2.762-.753s-1.88.245-2.762.753c-1.238.71-1.94 1.836-1.94 3.541v5.298c0 1.142-.322 1.812-1.055 2.53l-.416.396c-.154.15-.275.276-.39.412-.351.413-.627.896-.858 1.566-.117.342-.148.767-.063 1.049.078.256.227.369.62.369h13.728zm-4.835-17.097c.495.151.99.357 1.45.62 1.684.968 2.69 2.582 2.69 4.857v5.298c0 .697.14.988.6 1.44l.41.39c.186.18.34.34.49.517.472.556.843 1.205 1.135 2.056.215.625.269 1.374.081 1.996-.267.885-.983 1.43-2.021 1.43h-3.645C25.117 32.632 23.722 34 22.016 34c-1.707 0-3.102-1.368-3.204-3.094h-3.676c-1.038 0-1.754-.545-2.021-1.43-.188-.622-.134-1.37.08-1.996.293-.851.664-1.5 1.136-2.056.15-.177.304-.337.49-.518l.41-.39c.46-.45.6-.742.6-1.439v-5.298c0-2.275 1.006-3.89 2.69-4.857a7.08 7.08 0 0 1 1.456-.622c.087-.16.206-.335.362-.512.43-.485 1-.788 1.698-.788a2.09 2.09 0 0 1 1.663.787c.146.177.253.354.329.515zm-.282 18.604h-3.463c.098.893.836 1.587 1.732 1.587.895 0 1.633-.694 1.73-1.587z"/>
        <!-- <circle cx="27.5" cy="13.5" r="4.75" fill="#EC0000"/> -->
    </g>
</svg>
