<?xml version="1.0" encoding="UTF-8"?>
<svg width="18px" height="18px" viewBox="0 0 18 18" version="1.1" xmlns="http://www.w3.org/2000/svg" xmlns:xlink="http://www.w3.org/1999/xlink">
    <title>musica-searcher</title>
    <desc>Created with Sketch.</desc>
    <defs></defs>
    <g id="Symbols" stroke="none" stroke-width="1" fill="none" fill-rule="evenodd">
        <g id="UI/button-search" transform="translate(-11.000000, -11.000000)" fill="#FFFFFF">
            <g id="musica-searcher" transform="translate(11.000000, 11.000000)">
                <path d="M17.5594778,15.4322286 L13.64907,11.5218927 C13.6282879,11.5011106 13.6039103,11.4865847 13.5821934,11.4672409 C14.3516332,10.3000655 14.8007127,8.90292115 14.8007127,7.40042827 C14.8007127,3.31326505 11.4874477,0 7.40035636,0 C3.31326505,0 0,3.31326505 0,7.40035636 C0,11.4873758 3.31319313,14.8007127 7.40028445,14.8007127 C8.90284924,14.8007127 10.2999217,14.3516332 11.4670971,13.5821934 C11.4864409,13.6038384 11.5008949,13.628216 11.5216769,13.6489981 L15.4321567,17.5594778 C16.0195915,18.1468407 16.971971,18.1468407 17.5594778,17.5594778 C18.1468407,16.9720429 18.1468407,16.0196635 17.5594778,15.4322286 Z M7.40035636,12.2352424 C4.73004091,12.2352424 2.56539838,10.0705999 2.56539838,7.40035636 C2.56539838,4.73004091 4.73011282,2.56539838 7.40035636,2.56539838 C10.070528,2.56539838 12.2352424,4.73011282 12.2352424,7.40035636 C12.2352424,10.0705999 10.070528,12.2352424 7.40035636,12.2352424 Z" id="Shape"></path>
            </g>
        </g>
    </g>
</svg>