<?xml version="1.0" encoding="UTF-8"?>
<svg width="60px" height="61px" viewBox="0 0 60 61" version="1.1" xmlns="http://www.w3.org/2000/svg" xmlns:xlink="http://www.w3.org/1999/xlink">
    <!-- Generator: sketchtool 56.3 (101010) - https://sketch.com -->
    <title>A1165311-F091-4507-869B-12D461C141BE</title>
    <desc>Created with sketchtool.</desc>
    <g id="App-V_1.2" stroke="none" stroke-width="1" fill="none" fill-rule="evenodd">
        <g id="app/puntos_transfer_error_intentos_OTP" transform="translate(-158.000000, -198.000000)" fill="#EC0000">
            <g id="Group-3" transform="translate(11.000000, 174.000000)">
                <path d="M155.774341,75.2290807 C144.07522,63.528494 144.07522,44.4910461 155.774341,32.7904595 C161.442202,27.1211334 168.979812,24 176.995117,24 C185.010422,24 192.548032,27.1211334 198.215893,32.7904595 C209.915014,44.4910461 209.915014,63.528494 198.215893,75.2290807 C192.548032,80.8984068 185.010422,84.0195402 176.995117,84.0195402 C168.979812,84.0195402 161.442202,80.8984068 155.774341,75.2290807 Z M176.995117,27.000977 C169.779877,27.000977 162.998373,29.8099971 157.896126,34.9122438 C147.36633,45.4420393 147.36633,62.5775006 157.896126,73.1072961 C162.998373,78.2095431 169.779877,81.0185632 176.995117,81.0185632 C184.210357,81.0185632 190.991861,78.2095431 196.094108,73.1072964 C206.623904,62.5775009 206.623904,45.4420396 196.094108,34.9122441 C190.991861,29.8099971 184.210357,27.000977 176.995117,27.000977 Z M164.26441,66.7419426 C163.678282,66.1558143 163.678282,65.2062863 164.26441,64.620158 L174.873516,54.0097701 L164.26441,43.3993819 C163.678282,42.8132539 163.678282,41.8637259 164.26441,41.2775976 C164.850538,40.6914692 165.800066,40.6914692 166.386195,41.2775976 L176.995117,51.8878024 L187.60404,41.2775979 C188.190168,40.6914695 189.139696,40.6914698 189.725824,41.2775979 C190.311952,41.8637259 190.311952,42.8132539 189.725824,43.3993822 L179.116718,54.0097701 L189.725824,64.6201583 C190.311952,65.2062863 190.311952,66.1558143 189.725824,66.7419426 C189.43276,67.0350069 189.048846,67.1815389 188.664932,67.1815389 C188.281018,67.1815389 187.897103,67.0350066 187.604039,66.7419426 L176.995117,56.1317378 L166.386194,66.7419426 C166.09313,67.0350069 165.709216,67.1815389 165.325302,67.1815389 C164.941388,67.1815389 164.557474,67.0350066 164.26441,66.7419426 Z" id="block_function_icon"></path>
            </g>
        </g>
    </g>
</svg>