<svg xmlns="http://www.w3.org/2000/svg" viewBox="0 0 24.09 24.09">
  <defs>
    <style>
      .cls-1 {
        fill: none;
        stroke: #ec0000;
        stroke-linecap: round;
        stroke-miterlimit: 10;
        stroke-width: 0.7px;
      }

      .cls-2 {
        fill: #ec0000;
      }
    </style>
  </defs>
  <title> Master_Iconos_recompensas</title>
  <g id="Layer_6" data-name="Layer 6">
    <g>
      <g>
        <path class="cls-1" d="M9.35,12.06l0-6.38a1.46,1.46,0,0,1,1.46-1.46h5.87a1.46,1.46,0,0,1,1.46,1.46V18.4a1.42,1.42,0,0,1-1.46,1.41H11"/>
        <line class="cls-1" x1="12.09" y1="6.05" x2="12.09" y2="6.05"/>
        <line class="cls-1" x1="15.55" y1="6.05" x2="13.34" y2="6.05"/>
      </g>
      <g>
        <ellipse class="cls-1" cx="9.82" cy="16.05" rx="3.85" ry="3.83"/>
        <path class="cls-2" d="M9.54,17.86a1.73,1.73,0,0,1-.9-.32l.21-.37a1.48,1.48,0,0,0,.85.28c.45,0,.71-.16.71-.45s-.47-.47-.91-.67-.78-.41-.78-.92a.86.86,0,0,1,.83-.84v-.68H10v.68a1.6,1.6,0,0,1,.77.3l-.23.35A1.34,1.34,0,0,0,9.77,15c-.36,0-.59.15-.59.43s.36.45.76.61,1,.41,1,.93a.91.91,0,0,1-.89.91v.74H9.54Z"/>
      </g>
    </g>
  </g>
</svg>
