<svg xmlns="http://www.w3.org/2000/svg" width="34" height="34" viewBox="0 0 34 34">
    <g fill="none" fill-rule="evenodd">
        <circle cx="17" cy="17" r="17" fill="#EC0000"/>
        <path fill="#FFF" fill-rule="nonzero" d="M26.515 12.09a7.366 7.366 0 0 1-2.154.6 3.806 3.806 0 0 0 1.649-2.109 7.432 7.432 0 0 1-2.38.925 3.716 3.716 0 0 0-2.737-1.203c-2.07 0-3.748 1.706-3.748 3.81 0 .298.033.589.097.868-3.116-.16-5.878-1.676-7.727-3.98a3.838 3.838 0 0 0-.508 1.915c0 1.322.662 2.488 1.668 3.17a3.693 3.693 0 0 1-1.698-.476v.048c0 1.846 1.292 3.385 3.007 3.736a3.712 3.712 0 0 1-1.693.065c.477 1.513 1.861 2.615 3.501 2.645a7.444 7.444 0 0 1-5.55 1.578 10.485 10.485 0 0 0 5.747 1.711c6.895 0 10.666-5.804 10.666-10.839 0-.165-.004-.33-.01-.493a7.662 7.662 0 0 0 1.87-1.972z"/>
    </g>
</svg>
