<svg xmlns="http://www.w3.org/2000/svg" viewBox="0 0 24.09 24.09">
  <defs>
    <style>
      .cls-1 {
        fill: none;
        stroke: #ec0000;
        stroke-linecap: round;
        stroke-miterlimit: 10;
        stroke-width: 0.7px;
      }
    </style>
  </defs>
  <title> Master_Iconos_recompensas</title>
  <g id="Layer_6" data-name="Layer 6">
    <g>
      <g>
        <path class="cls-1" d="M13.78,8.67,16,6.74A4.4,4.4,0,0,1,17.1,6L19,5.18a.43.43,0,0,1,.49.11h0a.43.43,0,0,1,0,.5L18.47,7.58a4.4,4.4,0,0,1-.86,1l-2.18,1.92"/>
        <path class="cls-1" d="M16,6.78S17.11,6.4,17.6,7s0,1.59,0,1.59"/>
      </g>
      <g>
        <path class="cls-1" d="M13.74,8.64,7.54,6.26a.63.63,0,0,0-.64.12l-.84.74s-.33.24-.14.4,4.56,4,4.56,4"/>
        <path class="cls-1" d="M15.44,10.58,17,17a.63.63,0,0,1-.2.62l-.84.74s-.28.3-.41.09-3.42-5-3.42-5"/>
      </g>
      <path class="cls-1" d="M13.78,8.67,7.88,14a.63.63,0,0,1-.47.17s-2.48-.54-2.61-.54-.46.16-.22.43L6,15.71c.1.11,0,.18-.05.23-.43.47-.61,1.11-.31,1.44s1,.12,1.54-.34l2.55-1.89"/>
      <path class="cls-1" d="M16.22,9.82l-7,5.74A.63.63,0,0,0,9,16s.23,2.53.21,2.66-.22.44-.46.16L7.32,17.18c-.1-.11-.18,0-.23,0-.52.37-1.17.47-1.46.14s0-1,.53-1.48l2.2-2.29"/>
    </g>
  </g>
</svg>
