<svg xmlns="http://www.w3.org/2000/svg" viewBox="0 0 36.63 39.47"><defs><style>.cls-1{fill:none;stroke:#ec0000;stroke-width:2px;}</style></defs><title>wellness_icon</title><g id="Capa_2" data-name="Capa 2"><g id="Capa_1-2" data-name="Capa 1"><g id="PROTOTIPO-ACTUALIZADO"><g id="iconos_saludBelleza" data-name="iconos saludBelleza"><g id="Group-8"><path id="Path" class="cls-1" d="M27,7.51A8.46,8.46,0,0,1,20.69,10s-.12-4.92,2.23-6.59a22.43,22.43,0,0,1,6.52-2.16A21.12,21.12,0,0,1,27,7.51Z"/><path class="cls-1" d="M8.29,33.59a18.45,18.45,0,0,0,2.91,3.33,5.12,5.12,0,0,0,6.1.94,10.84,10.84,0,0,1,3-.72h0a10.84,10.84,0,0,1,3,.72,5.12,5.12,0,0,0,6.1-.94,20,20,0,0,0,6-17.4C33,9.58,24.67,12.68,24.67,12.68a23.69,23.69,0,0,1-4.19.55h-.34A23.69,23.69,0,0,1,16,12.68S7.6,9.58,5.21,19.5A18.17,18.17,0,0,0,5,22.88"/><path class="cls-1" d="M16.31,4.5A9.58,9.58,0,0,1,20.69,10"/><path class="cls-1" d="M6.22,18.72H3.72a2.36,2.36,0,1,0,0,4.71h17v7.32h-17A2.55,2.55,0,0,1,1,28.4V21.08"/><path class="cls-1" d="M5.38,30.75V27.47"/><path class="cls-1" d="M10.84,30.75V27.47"/><path class="cls-1" d="M16.31,30.75V27.47"/></g></g></g></g></g></svg>