<svg xmlns="http://www.w3.org/2000/svg" width="34" height="34" viewBox="0 0 34 34">
    <g fill="none" fill-rule="evenodd">
        <circle cx="17" cy="17" r="17" fill="#EC0000"/>
        <path fill="#FFF" fill-rule="nonzero" d="M26.81 13.021s.19 1.61.19 3.222v1.51c0 1.61-.19 3.221-.19 3.221s-.186 1.372-.755 1.975c-.723.793-1.532.797-1.904.844-2.659.2-6.651.207-6.651.207s-4.94-.047-6.46-.2c-.423-.083-1.372-.059-2.095-.851-.57-.603-.755-1.975-.755-1.975S8 19.364 8 17.752v-1.51c0-1.61.19-3.22.19-3.22s.186-1.373.755-1.978c.723-.792 1.532-.797 1.904-.842C13.507 10 17.495 10 17.495 10h.01s3.987 0 6.646.202c.372.045 1.181.05 1.904.842.57.604.755 1.977.755 1.977zm-11.683.479v7l5.94-3.5-5.94-3.5z"/>
    </g>
</svg>
